<?xml version="1.0" encoding="utf-8"?>
<svg version="1.1" xmlns:xlink="http://www.w3.org/1999/xlink" width="40px" height="36px" xmlns="http://www.w3.org/2000/svg">
  <g transform="matrix(1 0 0 1 -60 -299 )">
    <path d="M 7.70089285714286 26.6633416458853  C 7.70089285714286 26.8129675810474  7.62648809523809 26.8877805486284  7.47767857142857 26.8877805486284  C 7.44791666666667 26.8877805486284  7.40327380952381 26.8728179551122  7.34375 26.8428927680798  C 6.06398809523809 25.9900249376559  4.81026785714286 24.9052369077307  3.58258928571429 23.5885286783042  C 2.35491071428571 22.2718204488778  1.31696428571429 20.925187032419  0.46875 19.5486284289277  C 0.15625 19.0997506234414  0 18.5835411471322  0 18  C 0 17.8653366583541  0.0148809523809524 17.7231920199501  0.0446428571428571 17.573566084788  C 0.0744047619047619 17.4239401496259  0.104166666666667 17.28927680798  0.133928571428571 17.1695760598504  C 0.163690476190476 17.0498753117207  0.21577380952381 16.9152119700748  0.290178571428571 16.7655860349127  C 0.364583333333333 16.6159600997506  0.427827380952381 16.4962593516209  0.479910714285714 16.4064837905237  C 0.531994047619048 16.3167082294264  0.610119047619048 16.1895261845387  0.714285714285714 16.0249376558603  C 0.818452380952381 15.860349127182  0.892857142857143 15.7481296758105  0.9375 15.6882793017456  C 0.982142857142857 15.6284289276808  1.07142857142857 15.5124688279302  1.20535714285714 15.3403990024938  C 1.33928571428571 15.1683291770574  1.42113095238095 15.0598503740648  1.45089285714286 15.0149625935162  C 4.1889880952381 11.2593516209476  7.55208333333333 8.5286783042394  11.5401785714286 6.82294264339152  C 9.90327380952381 3.86034912718204  9.08482142857143 2.28179551122194  9.08482142857143 2.08728179551122  C 9.08482142857143 1.80299251870324  9.21130952380952 1.5860349127182  9.46428571428571 1.43640897755611  C 11.1904761904762 0.4788029925187  12.1428571428571 0  12.3214285714286 0  C 12.5892857142857 0  12.797619047619 0.119700748129675  12.9464285714286 0.359102244389029  L 15.7142857142857 5.49875311720698  C 17.0833333333333 5.214463840399  18.5119047619048 5.07231920199501  20 5.07231920199501  C 23.9583333333333 5.07231920199501  27.6599702380952 6.10099750623441  31.1049107142857 8.15835411471322  C 34.5498511904762 10.215710723192  37.3660714285714 12.9800498753117  39.5535714285714 16.4513715710723  C 39.8511904761905 16.9152119700748  40 17.431421446384  40 18  C 40 18.568578553616  39.8511904761905 19.0847880299252  39.5535714285714 19.5486284289277  C 38.1994047619048 21.6733167082294  36.5736607142857 23.569825436409  34.6763392857143 25.2381546134663  C 32.7790178571429 26.9064837905237  30.7068452380952 28.2194513715711  28.4598214285714 29.1770573566085  C 30.0967261904762 32.139650872818  30.9151785714286 33.7182044887781  30.9151785714286 33.9127182044888  C 30.9151785714286 34.211970074813  30.7886904761905 34.428927680798  30.5357142857143 34.5635910224439  C 28.8095238095238 35.5211970074813  27.8645833333333 36  27.7008928571429 36  C 27.4181547619048 36  27.202380952381 35.8802992518703  27.0535714285714 35.640897755611  L 24.2857142857143 30.501246882793  L 22.8571428571429 27.8304239401496  L 12.9464285714286 9.42643391521197  L 13.1026785714286 9.26932668329177  C 12.2395833333333 9.6284289276808  11.5029761904762 9.98004987531172  10.8928571428571 10.3241895261845  C 10.9375 10.3990024937656  11.8824404761905 12.1496259351621  13.7276785714286 15.5760598503741  C 15.5729166666667 19.002493765586  17.3809523809524 22.3615960099751  19.1517857142857 25.6533665835411  C 20.922619047619 28.9451371571072  21.8080357142857 30.6134663341646  21.8080357142857 30.6583541147132  C 21.8080357142857 30.7630922693267  21.7410714285714 30.8304239401496  21.6071428571429 30.860349127182  C 21.4136904761905 30.9052369077307  20.8779761904762 30.927680798005  20 30.927680798005  C 19.1517857142857 30.927680798005  18.7053571428571 30.8753117206983  18.6607142857143 30.7705735660848  L 8.48214285714286 11.8952618453865  C 7.90178571428571 12.3142144638404  7.29166666666667 12.8229426433915  6.65178571428571 13.4214463840399  C 7.00892857142857 14.0648379052369  8.60119047619048 17.0087281795511  11.4285714285714 22.2531172069825  C 14.2559523809524 27.497506234414  15.6696428571429 30.1496259351621  15.6696428571429 30.2094763092269  C 15.6696428571429 30.359102244389  15.5877976190476 30.4339152119701  15.4241071428571 30.4339152119701  C 15.2157738095238 30.4339152119701  14.6019345238095 30.2693266832918  13.5825892857143 29.9401496259352  C 12.563244047619 29.6109725685786  12.0238095238095 29.4014962593516  11.9642857142857 29.3117206982544  L 9.59821428571429 24.8902743142145  L 4.59821428571429 15.6209476309227  C 3.94345238095238 16.4139650872818  3.36309523809524 17.2069825436409  2.85714285714286 18  C 2.88690476190476 18.0448877805486  3.02083333333333 18.2319201995012  3.25892857142857 18.5610972568579  C 3.49702380952381 18.8902743142145  3.66815476190476 19.14463840399  3.77232142857143 19.3241895261845  L 7.70089285714286 26.6633416458853  Z M 28.9508928571429 21.0635910224439  C 28.2514880952381 22.4775561097257  27.2693452380952 23.6558603491272  26.0044642857143 24.5985037406484  L 27.0982142857143 26.640897755611  C 31.1607142857143 24.9800498753117  34.5089285714286 22.0997506234414  37.1428571428571 18  C 34.4642857142857 13.85536159601  31.0491071428571 10.9451371571072  26.8973214285714 9.26932668329177  C 27.8943452380952 10.2269326683292  28.6607142857143 11.3379052369077  29.1964285714286 12.6022443890274  C 29.7321428571429 13.8665835411471  30 15.1870324189526  30 16.5635910224439  C 30 18.1496259351621  29.6502976190476 19.6496259351621  28.9508928571429 21.0635910224439  Z M 19.2410714285714 10.0548628428928  C 19.0327380952381 10.2643391521197  18.9285714285714 10.5187032418953  18.9285714285714 10.8179551122195  C 18.9285714285714 11.1172069825436  19.0327380952381 11.3715710723192  19.2410714285714 11.5810473815461  C 19.4494047619048 11.7905236907731  19.702380952381 11.8952618453865  20 11.8952618453865  C 21.2797619047619 11.8952618453865  22.3735119047619 12.3516209476309  23.28125 13.2643391521197  C 24.1889880952381 14.1770573566085  24.6428571428571 15.2768079800499  24.6428571428571 16.5635910224439  C 24.6428571428571 16.8628428927681  24.7470238095238 17.1172069825436  24.9553571428571 17.3266832917706  C 25.1636904761905 17.5361596009975  25.4166666666667 17.640897755611  25.7142857142857 17.640897755611  C 26.0119047619048 17.640897755611  26.264880952381 17.5361596009975  26.4732142857143 17.3266832917706  C 26.6815476190476 17.1172069825436  26.7857142857143 16.8628428927681  26.7857142857143 16.5635910224439  C 26.7857142857143 14.6783042394015  26.1235119047619 13.069825436409  24.7991071428571 11.7381546134663  C 23.4747023809524 10.4064837905237  21.875 9.74064837905237  20 9.74064837905237  C 19.702380952381 9.74064837905237  19.4494047619048 9.84538653366583  19.2410714285714 10.0548628428928  Z M 27.0535714285714 9.42643391521197  L 27.0982142857143 9.35910224438903  L 26.8973214285714 9.26932668329177  L 27.0535714285714 9.42643391521197  Z " fill-rule="nonzero" fill="#f2f2f2" stroke="none" transform="matrix(1 0 0 1 60 299 )" />
  </g>
</svg>