<?xml version="1.0" encoding="utf-8"?>
<svg version="1.1" xmlns:xlink="http://www.w3.org/1999/xlink" width="40px" height="40px" xmlns="http://www.w3.org/2000/svg">
  <g transform="matrix(1 0 0 1 -60 -187 )">
    <path d="M 12.2321428571429 1.58482142857143  C 14.702380952381 0.528273809523809  17.2916666666667 0  20 0  C 22.7083333333333 0  25.2976190476191 0.528273809523809  27.7678571428571 1.58482142857143  C 30.2380952380952 2.64136904761905  32.3660714285714 4.0625  34.1517857142857 5.84821428571428  C 35.9375 7.63392857142857  37.358630952381 9.76190476190476  38.4151785714286 12.2321428571429  C 39.4717261904762 14.7023809523809  40 17.2916666666667  40 20  C 40 22.7083333333333  39.4717261904762 25.297619047619  38.4151785714286 27.7678571428571  C 37.358630952381 30.2380952380952  35.9375 32.3660714285714  34.1517857142857 34.1517857142857  C 32.3660714285714 35.9375  30.2380952380952 37.358630952381  27.7678571428571 38.4151785714286  C 25.2976190476191 39.4717261904762  22.7083333333333 40  20 40  C 17.2916666666667 40  14.702380952381 39.4717261904762  12.2321428571429 38.4151785714286  C 9.76190476190476 37.358630952381  7.63392857142857 35.9375  5.84821428571429 34.1517857142857  C 4.0625 32.3660714285714  2.64136904761905 30.2380952380952  1.58482142857143 27.7678571428571  C 0.528273809523809 25.297619047619  0 22.7083333333333  0 20  C 0 17.2916666666667  0.528273809523809 14.7023809523809  1.58482142857143 12.2321428571429  C 2.64136904761905 9.76190476190476  4.0625 7.63392857142857  5.84821428571429 5.84821428571428  C 7.63392857142857 4.0625  9.76190476190476 2.64136904761905  12.2321428571429 1.58482142857143  Z M 28.0580357142857 4.86607142857143  C 25.5133928571429 3.52678571428572  22.827380952381 2.85714285714286  20 2.85714285714286  C 17.172619047619 2.85714285714286  14.4866071428571 3.52678571428572  11.9419642857143 4.86607142857143  L 16.2723214285714 9.19642857142857  C 17.4925595238095 8.7797619047619  18.735119047619 8.57142857142857  20 8.57142857142857  C 21.264880952381 8.57142857142857  22.5074404761905 8.7797619047619  23.7276785714286 9.19642857142857  L 28.0580357142857 4.86607142857143  Z M 2.85714285714286 20  C 2.85714285714286 22.8273809523809  3.52678571428571 25.5133928571429  4.86607142857143 28.0580357142857  L 9.19642857142857 23.7276785714286  C 8.77976190476191 22.5074404761905  8.57142857142857 21.2648809523809  8.57142857142857 20  C 8.57142857142857 18.735119047619  8.77976190476191 17.4925595238095  9.19642857142857 16.2723214285714  L 4.86607142857143 11.9419642857143  C 3.52678571428571 14.4866071428571  2.85714285714286 17.172619047619  2.85714285714286 20  Z M 11.9419642857143 35.1339285714286  C 14.4866071428571 36.4732142857143  17.172619047619 37.1428571428571  20 37.1428571428571  C 22.827380952381 37.1428571428571  25.5133928571429 36.4732142857143  28.0580357142857 35.1339285714286  L 23.7276785714286 30.8035714285714  C 22.5074404761905 31.2202380952381  21.264880952381 31.4285714285714  20 31.4285714285714  C 18.735119047619 31.4285714285714  17.4925595238095 31.2202380952381  16.2723214285714 30.8035714285714  L 11.9419642857143 35.1339285714286  Z M 13.9397321428571 26.0602678571429  C 15.6138392857143 27.734375  17.6339285714286 28.5714285714286  20 28.5714285714286  C 22.3660714285714 28.5714285714286  24.3861607142857 27.734375  26.0602678571429 26.0602678571429  C 27.734375 24.3861607142857  28.5714285714286 22.3660714285714  28.5714285714286 20  C 28.5714285714286 17.6339285714286  27.734375 15.6138392857143  26.0602678571429 13.9397321428571  C 24.3861607142857 12.265625  22.3660714285714 11.4285714285714  20 11.4285714285714  C 17.6339285714286 11.4285714285714  15.6138392857143 12.265625  13.9397321428571 13.9397321428571  C 12.265625 15.6138392857143  11.4285714285714 17.6339285714286  11.4285714285714 20  C 11.4285714285714 22.3660714285714  12.265625 24.3861607142857  13.9397321428571 26.0602678571429  Z M 31.4285714285714 20  C 31.4285714285714 21.2648809523809  31.2202380952381 22.5074404761905  30.8035714285714 23.7276785714286  L 35.1339285714286 28.0580357142857  C 36.4732142857143 25.5133928571429  37.1428571428571 22.8273809523809  37.1428571428571 20  C 37.1428571428571 17.172619047619  36.4732142857143 14.4866071428571  35.1339285714286 11.9419642857143  L 30.8035714285714 16.2723214285714  C 31.2202380952381 17.4925595238095  31.4285714285714 18.735119047619  31.4285714285714 20  Z " fill-rule="nonzero" fill="#f2f2f2" stroke="none" transform="matrix(1 0 0 1 60 187 )" />
  </g>
</svg>