<?xml version="1.0" encoding="utf-8"?>
<svg version="1.1" xmlns:xlink="http://www.w3.org/1999/xlink" width="40px" height="40px" xmlns="http://www.w3.org/2000/svg">
  <g transform="matrix(1 0 0 1 -60 -79 )">
    <path d="M 10.8258928571429 22.0758928571429  L 4.82142857142857 26.09375  L 18.28125 35.0669642857143  L 18.28125 27.0535714285714  L 10.8258928571429 22.0758928571429  Z M 3.4375 17.1205357142857  L 3.4375 22.8794642857143  L 7.74553571428571 20  L 3.4375 17.1205357142857  Z M 21.71875 27.0535714285714  L 21.71875 35.0669642857143  L 35.1785714285714 26.09375  L 29.1741071428571 22.0758928571429  L 21.71875 27.0535714285714  Z M 13.9285714285714 20  L 20 24.0625  L 26.0714285714286 20  L 20 15.9375  L 13.9285714285714 20  Z M 4.82142857142857 13.90625  L 10.8258928571429 17.9241071428571  L 18.28125 12.9464285714286  L 18.28125 4.93303571428572  L 4.82142857142857 13.90625  Z M 36.5625 17.1205357142857  L 32.2544642857143 20  L 36.5625 22.8794642857143  L 36.5625 17.1205357142857  Z M 21.71875 12.9464285714286  L 29.1741071428571 17.9241071428571  L 35.1785714285714 13.90625  L 21.71875 4.93303571428572  L 21.71875 12.9464285714286  Z M 39.2410714285714 12.4776785714286  C 39.7470238095238 12.8199404761905  40 13.2961309523809  40 13.90625  L 40 26.09375  C 40 26.703869047619  39.7470238095238 27.1800595238095  39.2410714285714 27.5223214285714  L 20.9598214285714 39.7098214285714  C 20.6473214285714 39.9032738095238  20.327380952381 40  20 40  C 19.672619047619 40  19.3526785714286 39.9032738095238  19.0401785714286 39.7098214285714  L 0.758928571428571 27.5223214285714  C 0.25297619047619 27.1800595238095  0 26.703869047619  0 26.09375  L 0 13.90625  C 0 13.2961309523809  0.25297619047619 12.8199404761905  0.758928571428571 12.4776785714286  L 19.0401785714286 0.290178571428572  C 19.3526785714286 0.0967261904761951  19.672619047619 0  20 0  C 20.327380952381 0  20.6473214285714 0.0967261904761951  20.9598214285714 0.290178571428572  L 39.2410714285714 12.4776785714286  Z " fill-rule="nonzero" fill="#f2f2f2" stroke="none" transform="matrix(1 0 0 1 60 79 )" />
  </g>
</svg>