<?xml version="1.0" encoding="utf-8"?>
<svg version="1.1" xmlns:xlink="http://www.w3.org/1999/xlink" width="39px" height="36px" xmlns="http://www.w3.org/2000/svg">
  <g transform="matrix(1 0 0 1 -61 -409 )">
    <path d="M 22.0732182628062 30.2560096153846  C 22.2107461024499 30.1189903846154  22.2795100222717 29.9495192307692  22.2795100222717 29.7475961538462  L 22.2795100222717 25.6370192307692  C 22.2795100222717 25.4350961538462  22.2107461024499 25.265625  22.0732182628062 25.1286057692308  C 21.9356904231626 24.9915865384615  21.7728285077951 24.9230769230769  21.5846325167038 24.9230769230769  L 17.4153674832962 24.9230769230769  C 17.2271714922049 24.9230769230769  17.0643095768374 24.9915865384615  16.9267817371938 25.1286057692308  C 16.7892538975501 25.265625  16.7204899777283 25.4350961538462  16.7204899777283 25.6370192307692  L 16.7204899777283 29.7475961538462  C 16.7204899777283 29.9495192307692  16.7892538975501 30.1189903846154  16.9267817371938 30.2560096153846  C 17.0643095768374 30.3930288461538  17.2271714922049 30.4615384615385  17.4153674832962 30.4615384615385  L 21.5846325167038 30.4615384615385  C 21.7728285077951 30.4615384615385  21.9356904231626 30.3930288461538  22.0732182628062 30.2560096153846  Z M 22.0080734966592 22.0132211538462  C 22.1456013363029 21.9194711538462  22.2216035634744 21.8004807692308  22.2360801781737 21.65625  L 22.6269487750557 11.7259615384615  C 22.6269487750557 11.5528846153846  22.554565701559 11.4158653846154  22.4097995545657 11.3149038461538  C 22.2216035634744 11.15625  22.0478841870824 11.0769230769231  21.8886414253898 11.0769230769231  L 17.1113585746102 11.0769230769231  C 16.9521158129176 11.0769230769231  16.7783964365256 11.15625  16.5902004454343 11.3149038461538  C 16.445434298441 11.4158653846154  16.3730512249443 11.5673076923077  16.3730512249443 11.7692307692308  L 16.7422048997773 21.65625  C 16.7422048997773 21.8004807692308  16.8145879732739 21.9194711538462  16.9593541202673 22.0132211538462  C 17.1041202672606 22.1069711538462  17.2778396436526 22.1538461538462  17.4805122494432 22.1538461538462  L 21.4977728285078 22.1538461538462  C 21.7004454342984 22.1538461538462  21.8705456570156 22.1069711538462  22.0080734966592 22.0132211538462  Z M 20.9114699331849 0.389423076923078  C 21.3457683741648 0.649038461538461  21.6859688195991 1.00240384615384  21.9320712694878 1.44951923076923  L 38.609131403118 31.9110576923077  C 39.1158129175947 32.8197115384615  39.1013363028953 33.7283653846154  38.56570155902 34.6370192307692  C 38.3195991091314 35.0552884615385  37.9830178173719 35.3870192307692  37.5559576837416 35.6322115384615  C 37.1288975501114 35.8774038461538  36.6692650334076 36  36.1770601336303 36  L 2.82293986636971 36  C 2.33073496659243 36  1.87110244988864 35.8774038461538  1.44404231625835 35.6322115384615  C 1.01698218262806 35.3870192307692  0.680400890868597 35.0552884615385  0.434298440979955 34.6370192307692  C -0.101336302895323 33.7283653846154  -0.115812917594655 32.8197115384615  0.39086859688196 31.9110576923077  L 17.0679287305123 1.44951923076923  C 17.3140311804009 1.00240384615384  17.6542316258352 0.649038461538461  18.0885300668151 0.389423076923078  C 18.5228285077951 0.129807692307694  18.9933184855234 0  19.5 0  C 20.0066815144766 0  20.4771714922049 0.129807692307694  20.9114699331849 0.389423076923078  Z " fill-rule="nonzero" fill="#f2f2f2" stroke="none" transform="matrix(1 0 0 1 61 409 )" />
  </g>
</svg>