<?xml version="1.0" encoding="utf-8"?>
<svg version="1.1" xmlns:xlink="http://www.w3.org/1999/xlink" width="10px" height="6px" xmlns="http://www.w3.org/2000/svg">
  <g transform="matrix(1 0 0 1 -1412 -744 )">
    <path d="M 9.814453125 4.86458333333333  C 9.93815104166663 4.99652777777777  10 5.15277777777777  10 5.33333333333333  C 10 5.51388888888889  9.93815104166663 5.67013888888889  9.814453125 5.80208333333333  C 9.69075520833337 5.93402777777777  9.54427083333337 6  9.375 6  L 0.625 6  C 0.455729166666629 6  0.309244791666629 5.93402777777777  0.185546875 5.80208333333333  C 0.0618489583333712 5.67013888888889  0 5.51388888888889  0 5.33333333333333  C 0 5.15277777777777  0.0618489583333712 4.99652777777777  0.185546875 4.86458333333333  L 4.560546875 0.197916666666671  C 4.68424479166663 0.0659722222222285  4.83072916666663 0  5 0  C 5.16927083333337 0  5.31575520833337 0.0659722222222285  5.439453125 0.197916666666671  L 6.90443736074519 1.76056651812826  L 9.814453125 4.86458333333333  Z " fill-rule="nonzero" fill="#aaaaaa" stroke="none" transform="matrix(1 0 0 1 1412 744 )" />
  </g>
</svg>