<?xml version="1.0" encoding="utf-8"?>
<svg version="1.1" xmlns:xlink="http://www.w3.org/1999/xlink" width="104px" height="49px" xmlns="http://www.w3.org/2000/svg">
  <g transform="matrix(1 0 0 1 -473 -71 )">
    <path d="M 1.96753246753247 28.9591425639466  C 1.9399454392213 29.0332635921148  -2.01494288843685 27.3896162354561  1.96753246753247 28.9591425639466  C 5.95000782350178 30.5286688924372  8.32052886872168 37.8737117143272  13.0615709591613 36.5382493830744  C 17.802613049601 35.2027870518217  20.3311688311688 13.5682972855276  24.4400719762165 12.9005661199012  C 28.5489751212643 12.2328349542749  31.3936003755281 20.646247641167  37.7149898294476 23.0148607046482  C 44.0363792833672 25.3834737681294  46.4069003285871 -1.52242705762817  54.1506024096385 0.347220206125677  C 61.89430449069 2.21686746987952  64.5808950086058 26.6558281318043  71.6924581442654 27.991290463057  C 78.8040212799249 29.3267527943097  79.1989774628057 23.2467340381251  85.8760104025028 23.0148607046482  C 92.5530433422 22.7829873711714  90.8146612423721 45.0852083030918  100.454780159599 46  " stroke-width="2" stroke="#ec808d" fill="none" transform="matrix(1 0 0 1 474 72 )" />
  </g>
</svg>