<?xml version="1.0" encoding="utf-8"?>
<svg version="1.1" xmlns:xlink="http://www.w3.org/1999/xlink" width="101px" height="52px" xmlns="http://www.w3.org/2000/svg">
  <defs>
    <linearGradient gradientUnits="userSpaceOnUse" x1="50.5" y1="0.52" x2="50.5" y2="41.276716" id="LinearGradient50">
      <stop id="Stop51" stop-color="#f59a23" offset="0" />
      <stop id="Stop52" stop-color="#f59a23" stop-opacity="0.596078431372549" offset="0.46" />
      <stop id="Stop53" stop-color="#f59a23" stop-opacity="0" offset="1" />
    </linearGradient>
  </defs>
  <g transform="matrix(1 0 0 1 -763 -72 )">
    <path d="M 0 52  L 0 27.7321346242508  L 3.35178998042069 28.8559243891194  L 6.61740403441647 31.627939142462  L 10.2458640944118 35.3739050253573  L 12.7857861364085 35.8234209313047  L 15.6885541844048 34.3250345781466  L 19.1355912414004 25.8591516828031  L 22.0383592893966 17.0186721991702  L 23.6711663163945 13.872060857538  L 25.1225503403927 12.6733517750115  L 27.7531838838893 13.4974642692485  L 33.0144509708825 18.6668971876441  L 36.4614880278781 21.6636698939604  L 39.0014100698748 22.7125403411711  L 41.3599091088718 21.6636698939604  L 44.9883691688671 14.6212540341172  L 47.4375797093639 7.87851544490545  L 49.6146557453611 3.90779160903641  L 51.4288857753588 1.3605348086676  L 54.1502308203553 0.311664361456953  L 56.9622873668517 1.3605348086676  L 59.048651901349 3.90779160903641  L 61.407150940346 7.87851544490545  L 64.2192074868423 14.6212540341172  L 69.117628567836 25.109958506224  L 71.2947046038332 27.1327800829876  L 74.1067611503296 27.7321346242508  L 78.0980672163245 26.6083448593822  L 81.5451042733201 23.9861687413555  L 85.6271218408148 22.7125403411711  L 88.4391783873111 23.2369755647764  L 90.2534084173088 25.8591516828031  L 94.3354259848036 38.1459197786998  L 96.6032135223007 42.4163208852006  L 98.8710010597977 44.3642231443061  L 101 45.0384970032272  L 101 52  L 0 52  Z " fill-rule="nonzero" fill="url(#LinearGradient50)" stroke="none" transform="matrix(1 0 0 1 763 72 )" />
  </g>
</svg>