<?xml version="1.0" encoding="utf-8"?>
<svg version="1.1" xmlns:xlink="http://www.w3.org/1999/xlink" width="17px" height="16px" xmlns="http://www.w3.org/2000/svg">
  <g transform="matrix(1 0 0 1 -1413 -66 )">
    <path d="M 16.8296593186373 7.35403726708075  C 16.9432197728791 7.46445824706694  17 7.59144237405107  17 7.73498964803313  C 17 7.87853692201518  16.9432197728791 8.00552104899931  16.8296593186373 8.11594202898551  L 8.89178356713427 15.8343685300207  C 8.77822311289245 15.9447895100069  8.64762859051436 16  8.5 16  C 8.35237140948564 16  8.22177688710755 15.9447895100069  8.10821643286573 15.8343685300207  L 0.170340681362725 8.11594202898551  C 0.0567802271209086 8.00552104899931  0 7.87853692201518  0 7.73498964803313  C 0 7.59144237405107  0.0567802271209086 7.46445824706694  0.170340681362725 7.35403726708075  L 1.02204408817635 6.52587991718426  C 1.13560454241817 6.41545893719807  1.26619906479626 6.36024844720497  1.41382765531062 6.36024844720497  C 1.56145624582498 6.36024844720497  1.69205076820307 6.41545893719807  1.80561122244489 6.52587991718426  L 8.5 13.0351966873706  L 15.1943887775551 6.52587991718426  C 15.3079492317969 6.41545893719807  15.438543754175 6.36024844720497  15.5861723446894 6.36024844720497  C 15.7338009352037 6.36024844720497  15.8643954575818 6.41545893719807  15.9779559118236 6.52587991718426  L 16.8296593186373 7.35403726708075  Z M 16.8296593186373 0.993788819875777  C 16.9432197728791 1.10420979986197  17 1.2311939268461  17 1.37474120082816  C 17 1.51828847481021  16.9432197728791 1.64527260179434  16.8296593186373 1.75569358178054  L 8.89178356713427 9.47412008281573  C 8.77822311289245 9.58454106280193  8.64762859051436 9.63975155279503  8.5 9.63975155279503  C 8.35237140948564 9.63975155279503  8.22177688710755 9.58454106280193  8.10821643286573 9.47412008281573  L 0.170340681362725 1.75569358178054  C 0.0567802271209086 1.64527260179434  0 1.51828847481021  0 1.37474120082816  C 0 1.2311939268461  0.0567802271209086 1.10420979986197  0.170340681362725 0.993788819875777  L 1.02204408817635 0.165631469979296  C 1.13560454241817 0.0552104899930974  1.26619906479626 0  1.41382765531062 0  C 1.56145624582498 0  1.69205076820307 0.0552104899930974  1.80561122244489 0.165631469979296  L 8.5 6.67494824016563  L 15.1943887775551 0.165631469979296  C 15.3079492317969 0.0552104899930974  15.438543754175 0  15.5861723446894 0  C 15.7338009352037 0  15.8643954575818 0.0552104899930974  15.9779559118236 0.165631469979296  L 16.8296593186373 0.993788819875777  Z " fill-rule="nonzero" fill="#d7d7d7" stroke="none" transform="matrix(1 0 0 1 1413 66 )" />
  </g>
</svg>