<?xml version="1.0" encoding="utf-8"?>
<svg version="1.1" xmlns:xlink="http://www.w3.org/1999/xlink" width="283px" height="36px" xmlns="http://www.w3.org/2000/svg">
  <g transform="matrix(1 0 0 1 -932 -451 )">
    <path d="M 932.5 453  A 1.5 1.5 0 0 1 934 451.5 L 1213 451.5  A 1.5 1.5 0 0 1 1214.5 453 L 1214.5 485  A 1.5 1.5 0 0 1 1213 486.5 L 934 486.5  A 1.5 1.5 0 0 1 932.5 485 L 932.5 453  Z " fill-rule="nonzero" fill="#0082e5" stroke="none" />
    <path d="M 932.5 453  A 1.5 1.5 0 0 1 934 451.5 L 1213 451.5  A 1.5 1.5 0 0 1 1214.5 453 L 1214.5 485  A 1.5 1.5 0 0 1 1213 486.5 L 934 486.5  A 1.5 1.5 0 0 1 932.5 485 L 932.5 453  Z " stroke-width="1" stroke="#0075cd" fill="none" />
  </g>
</svg>