<?xml version="1.0" encoding="utf-8"?>
<svg version="1.1" xmlns:xlink="http://www.w3.org/1999/xlink" width="22px" height="25px" xmlns="http://www.w3.org/2000/svg">
  <g transform="matrix(1 0 0 1 -15 -77 )">
    <path d="M 17.1803385416667 7.65206473214286  C 17.7389322916667 7.99153645833333  18.1614583333333 8.44959077380952  18.4479166666667 9.02622767857143  C 19.0208333333333 9.02622767857143  19.5316840277778 9.13318452380952  19.98046875 9.34709821428572  C 21.3268229166667 9.93303571428572  22 10.9840029761905  22 12.5  L 22 14.9693080357143  C 22 15.8435639880952  21.8901909722222 16.7085193452381  21.6705729166667 17.5641741071429  L 20.453125 22.2935267857143  C 20.2526041666667 23.0933779761905  19.8205295138889 23.7444196428571  19.1569010416667 24.2466517857143  C 18.4932725694444 24.7488839285714  17.7413194444444 25  16.9010416666667 25  L 7.33333333333333 25  C 6.32118055555556 25  5.45703125 24.6512276785714  4.74088541666667 23.9536830357143  C 4.02473958333333 23.2561383928571  3.66666666666667 22.4144345238095  3.66666666666667 21.4285714285714  L 3.66666666666667 15.8342633928571  L 0.243489583333333 7.07310267857143  C 0.0811631944444444 6.65457589285714  0 6.23139880952381  0 5.80357142857143  C 0 4.81770833333333  0.358072916666667 3.97600446428572  1.07421875 3.27845982142857  C 1.79036458333333 2.58091517857143  2.65451388888889 2.23214285714286  3.66666666666667 2.23214285714286  C 4.43055555555556 2.23214285714286  5.12521701388889 2.44373139880952  5.75065104166667 2.86690848214286  C 6.37608506944444 3.29008556547619  6.82248263888889 3.84579613095238  7.08984375 4.53404017857143  L 7.33333333333333 5.14787946428572  L 7.33333333333333 3.57142857142857  C 7.33333333333333 2.58556547619047  7.69140625 1.74386160714286  8.40755208333333 1.04631696428572  C 9.12369791666667 0.348772321428573  9.98784722222222 0  11 0  C 12.0121527777778 0  12.8763020833333 0.348772321428573  13.5924479166667 1.04631696428572  C 14.30859375 1.74386160714286  14.6666666666667 2.58556547619047  14.6666666666667 3.57142857142857  L 14.6666666666667 7.21261160714286  C 14.9244791666667 7.16610863095238  15.1536458333333 7.14285714285714  15.3541666666667 7.14285714285714  C 16.0130208333333 7.14285714285714  16.6217447916667 7.31259300595238  17.1803385416667 7.65206473214286  Z M 16.4856770833333 9.38895089285714  C 16.1705729166667 9.08203125  15.7934027777778 8.92857142857143  15.3541666666667 8.92857142857143  C 15.0390625 8.92857142857143  14.7502170138889 9.01227678571428  14.4876302083333 9.1796875  C 14.2250434027778 9.34709821428572  14.0269097222222 9.5703125  13.8932291666667 9.84933035714286  L 12.8333333333333 12.1233258928571  L 11.81640625 14.2857142857143  L 12.6041666666667 14.2857142857143  C 13.0815972222222 14.2857142857143  13.5112847222222 14.4321986607143  13.8932291666667 14.7251674107143  C 14.2751736111111 15.0181361607143  14.5138888888889 15.3924851190476  14.609375 15.8482142857143  L 16.8151041666667 11.1328125  C 16.9105902777778 10.9468005952381  16.9583333333333 10.7328869047619  16.9583333333333 10.4910714285714  C 16.9583333333333 10.063244047619  16.80078125 9.69587053571428  16.4856770833333 9.38895089285714  Z M 19.6940104166667 11.2513950892857  C 19.3884548611111 10.9584263392857  18.9969618055556 10.8119419642857  18.51953125 10.8119419642857  C 18.3094618055556 10.8119419642857  18.1161024305556 10.8491443452381  17.939453125 10.9235491071429  C 17.7628038194444 10.9979538690476  17.6243489583333 11.0723586309524  17.5240885416667 11.1467633928571  C 17.423828125 11.2211681547619  17.3116319444444 11.3583519345238  17.1875 11.5583147321429  C 17.0633680555556 11.7582775297619  16.9822048611111 11.9001116071429  16.9440104166667 11.9838169642857  C 16.9058159722222 12.0675223214286  16.8246527777778 12.2395833333333  16.7005208333333 12.5  L 14.8098958333333 16.5457589285714  C 14.7144097222222 16.7317708333333  14.6666666666667 16.9456845238095  14.6666666666667 17.1875  C 14.6666666666667 17.6153273809524  14.82421875 17.9827008928571  15.1393229166667 18.2896205357143  C 15.4544270833333 18.5965401785714  15.8315972222222 18.75  16.2708333333333 18.75  C 16.5859375 18.75  16.8747829861111 18.6662946428571  17.1373697916667 18.4988839285714  C 17.3999565972222 18.3314732142857  17.5980902777778 18.1082589285714  17.7317708333333 17.8292410714286  L 20.0234375 12.9185267857143  C 20.109375 12.7511160714286  20.15234375 12.5744047619048  20.15234375 12.3883928571429  C 20.15234375 11.9233630952381  19.9995659722222 11.5443638392857  19.6940104166667 11.2513950892857  Z M 2.37044270833333 4.541015625  C 2.01236979166667 4.88978794642857  1.83333333333333 5.31063988095238  1.83333333333333 5.80357142857143  C 1.83333333333333 6.00818452380952  1.87152777777778 6.22209821428572  1.94791666666667 6.4453125  L 5.5 15.5133928571429  L 5.5 16.4760044642857  L 6.9609375 14.9274553571429  C 7.37152777777778 14.4996279761905  7.87760416666667 14.2857142857143  8.47916666666667 14.2857142857143  L 11.3151041666667 14.2857142857143  L 12.8333333333333 11.03515625  L 12.8333333333333 3.57142857142857  C 12.8333333333333 3.07849702380952  12.654296875 2.65764508928572  12.2962239583333 2.30887276785714  C 11.9381510416667 1.96010044642857  11.5060763888889 1.78571428571428  11 1.78571428571428  C 10.4939236111111 1.78571428571428  10.0618489583333 1.96010044642857  9.70377604166667 2.30887276785714  C 9.345703125 2.65764508928572  9.16666666666667 3.07849702380952  9.16666666666667 3.57142857142857  L 9.16666666666667 12.5  L 8.25 12.5  L 5.38541666666667 5.16183035714286  C 5.25173611111111 4.81770833333333  5.02734375 4.541015625  4.71223958333333 4.33175223214286  C 4.39713541666667 4.12248883928572  4.04861111111111 4.01785714285714  3.66666666666667 4.01785714285714  C 3.16059027777778 4.01785714285714  2.728515625 4.19224330357143  2.37044270833333 4.541015625  Z M 7.33333333333333 23.2142857142857  L 16.9010416666667 23.2142857142857  C 17.3211805555556 23.2142857142857  17.6959635416667 23.0887276785714  18.025390625 22.8376116071429  C 18.3548177083333 22.5864955357143  18.5720486111111 22.260974702381  18.6770833333333 21.8610491071429  L 19.89453125 17.1316964285714  C 20.0759548611111 16.4527529761905  20.1666666666667 15.7319568452381  20.1666666666667 14.9693080357143  L 20.1666666666667 13.6997767857143  L 18.1471354166667 18.0245535714286  C 17.9848090277778 18.3779761904762  17.7317708333333 18.6616443452381  17.3880208333333 18.8755580357143  C 17.0442708333333 19.0894717261905  16.671875 19.1964285714286  16.2708333333333 19.1964285714286  C 15.7647569444444 19.1964285714286  15.318359375 19.0359933035714  14.931640625 18.7151227678571  C 14.544921875 18.3942522321429  14.3133680555556 17.9920014880952  14.2369791666667 17.5083705357143  C 13.8168402777778 18.0385044642857  13.2725694444444 18.3035714285714  12.6041666666667 18.3035714285714  L 9.625 18.3035714285714  L 9.625 17.8571428571429  L 12.6041666666667 17.8571428571429  C 13.0434027777778 17.8571428571429  13.4301215277778 17.7036830357143  13.7643229166667 17.3967633928571  C 14.0985243055556 17.08984375  14.265625 16.7224702380952  14.265625 16.2946428571429  C 14.265625 15.8668154761905  14.1176215277778 15.4994419642857  13.8216145833333 15.1925223214286  C 13.5256076388889 14.8856026785714  13.1579861111111 14.7321428571429  12.71875 14.7321428571429  L 8.47916666666667 14.7321428571429  C 8.01128472222222 14.7321428571429  7.61979166666667 14.8995535714286  7.3046875 15.234375  L 5.5 17.1316964285714  L 5.5 21.4285714285714  C 5.5 21.9215029761905  5.67903645833333 22.3423549107143  6.037109375 22.6911272321429  C 6.39518229166667 23.0398995535714  6.82725694444445 23.2142857142857  7.33333333333333 23.2142857142857  Z " fill-rule="nonzero" fill="#000000" stroke="none" transform="matrix(1 0 0 1 15 77 )" />
  </g>
</svg>