<?xml version="1.0" encoding="utf-8"?>
<svg version="1.1" xmlns:xlink="http://www.w3.org/1999/xlink" width="22px" height="24px" xmlns="http://www.w3.org/2000/svg">
  <g transform="matrix(1 0 0 1 -15 -120 )">
    <path d="M 12.9276960784314 2.15625  C 12.6311274509804 1.86160714285714  12.2761437908497 1.71428571428571  11.8627450980392 1.71428571428571  C 11.4493464052288 1.71428571428571  11.094362745098 1.86160714285714  10.7977941176471 2.15625  C 10.5012254901961 2.45089285714286  10.3529411764706 2.80357142857143  10.3529411764706 3.21428571428571  L 10.3529411764706 12  L 9.92156862745098 12  L 9.92156862745098 4.92857142857143  C 9.92156862745098 4.51785714285714  9.77328431372549 4.16517857142857  9.47671568627451 3.87053571428571  C 9.18014705882353 3.57589285714286  8.82516339869281 3.42857142857143  8.41176470588235 3.42857142857143  C 7.9983660130719 3.42857142857143  7.64338235294118 3.57589285714286  7.3468137254902 3.87053571428571  C 7.05024509803922 4.16517857142857  6.90196078431373 4.51785714285714  6.90196078431373 4.92857142857143  L 6.90196078431373 12  L 6.90196078431373 15.4285714285714  L 4.82598039215686 12.6830357142857  C 4.48447712418301 12.2276785714286  4.02614379084967 12  3.45098039215686 12  C 2.97467320261438 12  2.56801470588235 12.1674107142857  2.23100490196078 12.5022321428571  C 1.89399509803922 12.8370535714286  1.72549019607843 13.2410714285714  1.72549019607843 13.7142857142857  C 1.72549019607843 14.0982142857143  1.84232026143791 14.4419642857143  2.07598039215686 14.7455357142857  L 7.25245098039216 21.6026785714286  C 7.59395424836601 22.0580357142857  8.05228758169935 22.2857142857143  8.62745098039216 22.2857142857143  L 17.9019607843137 22.2857142857143  C 18.2075163398693 22.2857142857143  18.4816176470588 22.1875  18.7242647058824 21.9910714285714  C 18.9669117647059 21.7946428571429  19.1196895424837 21.5446428571429  19.1825980392157 21.2410714285714  L 20.2071078431373 15.8169642857143  C 20.2520424836601 15.53125  20.2745098039216 15.2678571428571  20.2745098039216 15.0267857142857  L 20.2745098039216 8.35714285714286  C 20.2745098039216 7.94642857142857  20.1262254901961 7.59375  19.8296568627451 7.29910714285714  C 19.5330882352941 7.00446428571429  19.1781045751634 6.85714285714286  18.7647058823529 6.85714285714286  C 18.3513071895425 6.85714285714286  17.9963235294118 7.00446428571429  17.6997549019608 7.29910714285714  C 17.4031862745098 7.59375  17.2549019607843 7.94642857142857  17.2549019607843 8.35714285714286  L 17.2549019607843 12  L 16.8235294117647 12  L 16.8235294117647 4.92857142857143  C 16.8235294117647 4.51785714285714  16.6752450980392 4.16517857142857  16.3786764705882 3.87053571428571  C 16.0821078431373 3.57589285714286  15.7271241830065 3.42857142857143  15.3137254901961 3.42857142857143  C 14.9003267973856 3.42857142857143  14.5453431372549 3.57589285714286  14.2487745098039 3.87053571428571  C 13.9522058823529 4.16517857142857  13.8039215686275 4.51785714285714  13.8039215686275 4.92857142857143  L 13.8039215686275 12  L 13.3725490196078 12  L 13.3725490196078 3.21428571428571  C 13.3725490196078 2.80357142857143  13.2242647058824 2.45089285714286  12.9276960784314 2.15625  Z M 10.1709558823529 0.47544642857143  C 10.687704248366 0.158482142857144  11.2516339869281 0  11.8627450980392 0  C 12.4738562091503 0  13.0377859477124 0.158482142857144  13.5545343137255 0.47544642857143  C 14.0712826797386 0.792410714285713  14.468954248366 1.22321428571428  14.7475490196078 1.76785714285714  C 14.9183006535948 1.73214285714285  15.1070261437909 1.71428571428571  15.3137254901961 1.71428571428571  C 16.203431372549 1.71428571428571  16.9650735294118 2.02901785714286  17.5986519607843 2.65848214285714  C 18.2322303921569 3.28794642857143  18.5490196078431 4.04464285714286  18.5490196078431 4.92857142857143  L 18.5490196078431 5.15625  C 19.4926470588235 5.10267857142857  20.3037173202614 5.38839285714286  20.9822303921569 6.01339285714286  C 21.6607434640523 6.63839285714286  22 7.41964285714286  22 8.35714285714286  L 22 15.0267857142857  C 22 15.3839285714286  21.9640522875817 15.7544642857143  21.8921568627451 16.1383928571429  L 20.8676470588235 21.5491071428571  C 20.7418300653595 22.2544642857143  20.3980800653595 22.8392857142857  19.8363970588235 23.3035714285714  C 19.2747140522876 23.7678571428571  18.6299019607843 24  17.9019607843137 24  L 8.62745098039216 24  C 8.08823529411765 24  7.57373366013072 23.8772321428571  7.08394607843137 23.6316964285714  C 6.59415849673203 23.3861607142857  6.1875 23.0535714285714  5.86397058823529 22.6339285714286  L 0.6875 15.7767857142857  C 0.229166666666667 15.1696428571429  0 14.4821428571429  0 13.7142857142857  C 0 12.7678571428571  0.337009803921569 11.9598214285714  1.01102941176471 11.2901785714286  C 1.68504901960784 10.6205357142857  2.4983660130719 10.2857142857143  3.45098039215686 10.2857142857143  C 4.15196078431373 10.2857142857143  4.72712418300654 10.4375  5.17647058823529 10.7410714285714  L 5.17647058823529 4.92857142857143  C 5.17647058823529 4.04464285714286  5.49325980392157 3.28794642857143  6.12683823529412 2.65848214285714  C 6.76041666666667 2.02901785714286  7.52205882352941 1.71428571428571  8.41176470588235 1.71428571428571  C 8.61846405228758 1.71428571428571  8.80718954248366 1.73214285714285  8.97794117647059 1.76785714285714  C 9.25653594771242 1.22321428571428  9.65420751633987 0.792410714285713  10.1709558823529 0.47544642857143  Z " fill-rule="nonzero" fill="#000000" stroke="none" transform="matrix(1 0 0 1 15 120 )" />
  </g>
</svg>