<?xml version="1.0" encoding="utf-8"?>
<svg version="1.1" xmlns:xlink="http://www.w3.org/1999/xlink" width="22px" height="20px" xmlns="http://www.w3.org/2000/svg">
  <g transform="matrix(1 0 0 1 -15 -166 )">
    <path d="M 13.2114583333333 20  L 5.259375 20  C 4.67118055555556 20  4.14600694444444 19.8232886904762  3.68385416666667 19.4698660714286  C 3.22170138888889 19.116443452381  2.91805555555556 18.6607142857143  2.77291666666667 18.1026785714286  L 1.615625 13.6272321428571  C 1.51631944444444 13.203125  1.46666666666667 12.8013392857143  1.46666666666667 12.421875  C 1.46666666666667 12.0870535714286  1.44756944444444 11.8377976190476  1.409375 11.6741071428571  L 0.0802083333333333 6.35044642857143  C 0.0267361111111111 6.14955357142857  0 5.9375  0 5.71428571428571  C 0 5.02232142857143  0.236805555555556 4.42336309523809  0.710416666666667 3.91741071428571  C 1.18402777777778 3.41145833333333  1.77604166666667 3.12127976190476  2.48645833333333 3.046875  C 2.61631944444445 2.41443452380952  2.93142361111111 1.89732142857143  3.43177083333333 1.49553571428571  C 3.93211805555556 1.09375  4.51458333333333 0.892857142857142  5.17916666666667 0.892857142857142  C 5.81319444444445 0.892857142857142  6.37847222222222 1.0844494047619  6.875 1.46763392857143  C 7.37152777777778 1.85081845238095  7.69618055555556 2.34375  7.84895833333333 2.94642857142857  L 8.8 6.83035714285714  L 9.98020833333333 2.05357142857143  C 10.1329861111111 1.45089285714286  10.4576388888889 0.957961309523809  10.9541666666667 0.574776785714286  C 11.4506944444444 0.191592261904763  12.0159722222222 0  12.65 0  C 13.3298611111111 0  13.9237847222222 0.213913690476191  14.4317708333333 0.641741071428572  C 14.9397569444444 1.06956845238095  15.2472222222222 1.60714285714286  15.3541666666667 2.25446428571429  C 16.0569444444444 2.32886904761905  16.6375 2.62276785714286  17.0958333333333 3.13616071428571  C 17.5541666666667 3.64955357142857  17.7833333333333 4.25223214285714  17.7833333333333 4.94419642857143  C 17.7833333333333 5.12276785714286  17.7565972222222 5.3422619047619  17.703125 5.60267857142857  L 16.29375 11.3169642857143  C 16.3701388888889 11.264880952381  16.5133680555556 11.1588541666667  16.7234375 10.9988839285714  C 16.9335069444444 10.8389136904762  17.0805555555556 10.7291666666667  17.1645833333333 10.6696428571429  C 17.2486111111111 10.610119047619  17.3822916666667 10.5245535714286  17.565625 10.4129464285714  C 17.7489583333333 10.3013392857143  17.9055555555556 10.2250744047619  18.0354166666667 10.1841517857143  C 18.1652777777778 10.1432291666667  18.3237847222222 10.102306547619  18.5109375 10.0613839285714  C 18.6980902777778 10.0204613095238  18.8871527777778 10  19.078125 10  C 19.8802083333333 10  20.5677083333333 10.2752976190476  21.140625 10.8258928571429  C 21.7135416666667 11.3764880952381  22 12.0424107142857  22 12.8236607142857  C 22 13.2849702380952  21.8911458333333 13.7239583333333  21.6734375 14.140625  C 21.4557291666667 14.5572916666667  21.1559027777778 14.906994047619  20.7739583333333 15.1897321428571  L 14.9645833333333 19.4308035714286  C 14.4451388888889 19.8102678571429  13.8607638888889 20  13.2114583333333 20  Z M 13.5609375 1.80803571428571  C 13.3203125 1.55505952380952  13.0166666666667 1.42857142857143  12.65 1.42857142857143  C 12.3597222222222 1.42857142857143  12.0980902777778 1.51785714285714  11.8651041666667 1.69642857142857  C 11.6321180555556 1.875  11.48125 2.10565476190476  11.4125 2.38839285714286  L 9.53333333333333 10  L 8.078125 10  L 6.41666666666667 3.28125  C 6.34791666666667 2.9985119047619  6.19704861111111 2.76785714285714  5.9640625 2.58928571428571  C 5.73107638888889 2.41071428571429  5.46944444444445 2.32142857142857  5.17916666666667 2.32142857142857  C 4.8125 2.32142857142857  4.50694444444444 2.44419642857143  4.2625 2.68973214285714  C 4.01805555555556 2.93526785714286  3.89583333333333 3.2328869047619  3.89583333333333 3.58258928571429  C 3.89583333333333 3.69419642857143  3.90729166666667 3.7983630952381  3.93020833333333 3.89508928571429  L 5.44270833333333 10  L 5.14479166666667 10  L 4.01041666666667 5.44642857142857  C 3.94166666666667 5.17113095238095  3.78888888888889 4.93861607142857  3.55208333333333 4.74888392857143  C 3.31527777777778 4.55915178571429  3.05173611111111 4.46428571428571  2.76145833333333 4.46428571428571  C 2.40243055555556 4.46428571428571  2.096875 4.58705357142857  1.84479166666667 4.83258928571429  C 1.59270833333333 5.078125  1.46666666666667 5.37202380952381  1.46666666666667 5.71428571428571  C 1.46666666666667 5.81845238095238  1.478125 5.91517857142857  1.50104166666667 6.00446428571429  L 2.83020833333333 11.3392857142857  C 2.88368055555556 11.547619047619  2.91805555555556 11.8675595238095  2.93333333333333 12.2991071428571  C 2.94861111111111 12.7306547619048  2.98680555555556 13.0580357142857  3.04791666666667 13.28125  L 4.19375 17.7566964285714  C 4.25486111111111 17.9947916666667  4.38472222222222 18.1901041666667  4.58333333333333 18.3426339285714  C 4.78194444444445 18.4951636904762  5.00729166666667 18.5714285714286  5.259375 18.5714285714286  L 13.2114583333333 18.5714285714286  C 13.5322916666667 18.5714285714286  13.8225694444444 18.4747023809524  14.0822916666667 18.28125  L 19.8916666666667 14.0513392857143  C 20.3194444444444 13.7313988095238  20.5333333333333 13.3221726190476  20.5333333333333 12.8236607142857  C 20.5333333333333 12.436755952381  20.3901041666667 12.1075148809524  20.1036458333333 11.8359375  C 19.8171875 11.5643601190476  19.4753472222222 11.4285714285714  19.078125 11.4285714285714  C 18.7496527777778 11.4285714285714  18.4555555555556 11.5252976190476  18.1958333333333 11.71875  L 14.678125 14.2857142857143  L 14.678125 11.7522321428571  C 14.678125 11.7224702380952  14.8003472222222 11.2090773809524  15.0447916666667 10.2120535714286  C 15.2892361111111 9.21502976190476  15.5489583333333 8.16592261904762  15.8239583333333 7.06473214285714  C 16.0989583333333 5.96354166666667  16.2479166666667 5.36458333333333  16.2708333333333 5.26785714285714  C 16.3013888888889 5.13392857142857  16.3166666666667 5.02604166666667  16.3166666666667 4.94419642857143  C 16.3166666666667 4.59449404761905  16.1944444444444 4.29315476190476  15.95 4.04017857142857  C 15.7055555555556 3.78720238095238  15.4038194444444 3.66071428571429  15.0447916666667 3.66071428571429  C 14.746875 3.66071428571429  14.4814236111111 3.75  14.2484375 3.92857142857143  C 14.0154513888889 4.10714285714286  13.8645833333333 4.33779761904762  13.7958333333333 4.62053571428571  L 12.4666666666667 10  L 12.16875 10  L 13.8875 3.03571428571429  C 13.9104166666667 2.93154761904762  13.921875 2.82738095238095  13.921875 2.72321428571429  C 13.921875 2.36607142857143  13.8015625 2.0610119047619  13.5609375 1.80803571428571  Z " fill-rule="nonzero" fill="#000000" stroke="none" transform="matrix(1 0 0 1 15 166 )" />
  </g>
</svg>