<?xml version="1.0" encoding="utf-8"?>
<svg version="1.1" xmlns:xlink="http://www.w3.org/1999/xlink" width="22px" height="24px" xmlns="http://www.w3.org/2000/svg">
  <g transform="matrix(1 0 0 1 -15 -207 )">
    <path d="M 9.66466346153846 2.24330357142857  C 9.33854166666667 1.890625  8.9375 1.71428571428571  8.46153846153846 1.71428571428571  C 7.99439102564103 1.71428571428571  7.59555288461539 1.88169642857143  7.26502403846154 2.21651785714286  C 6.93449519230769 2.55133928571429  6.76923076923077 2.95535714285714  6.76923076923077 3.42857142857143  L 6.76923076923077 10.2857142857143  L 6.76923076923077 15.4285714285714  L 4.77283653846154 12.7232142857143  C 4.41145833333333 12.2410714285714  3.93990384615385 12  3.35817307692308 12  C 2.89983974358974 12  2.50761217948718 12.1696428571429  2.18149038461538 12.5089285714286  C 1.85536858974359 12.8482142857143  1.69230769230769 13.25  1.69230769230769 13.7142857142857  C 1.69230769230769 14.0982142857143  1.80689102564103 14.4419642857143  2.03605769230769 14.7455357142857  L 7.11298076923077 21.6026785714286  C 7.44791666666667 22.0580357142857  7.8974358974359 22.2857142857143  8.46153846153846 22.2857142857143  L 17.9543269230769 22.2857142857143  C 18.1482371794872 22.2857142857143  18.3223157051282 22.2254464285714  18.4765625 22.1049107142857  C 18.6308092948718 21.984375  18.7299679487179 21.8303571428571  18.7740384615385 21.6428571428571  L 19.9903846153846 16.7142857142857  C 20.2019230769231 15.8571428571429  20.3076923076923 14.9910714285714  20.3076923076923 14.1160714285714  L 20.3076923076923 11.2098214285714  C 20.3076923076923 10.84375  20.1842948717949 10.5267857142857  19.9375 10.2589285714286  C 19.6907051282051 9.99107142857143  19.3910256410256 9.85714285714286  19.0384615384615 9.85714285714286  C 18.6858974358974 9.85714285714286  18.3862179487179 9.98214285714285  18.1394230769231 10.2321428571429  C 17.8926282051282 10.4821428571429  17.7692307692308 10.7857142857143  17.7692307692308 11.1428571428571  L 17.3461538461538 11.1428571428571  L 17.3461538461538 10.3258928571429  C 17.3461538461538 9.89732142857143  17.2051282051282 9.53348214285714  16.9230769230769 9.234375  C 16.6410256410256 8.93526785714286  16.2884615384615 8.78571428571429  15.8653846153846 8.78571428571429  C 15.4599358974359 8.78571428571429  15.1117788461538 8.93303571428571  14.8209134615385 9.22767857142857  C 14.5300480769231 9.52232142857143  14.3846153846154 9.875  14.3846153846154 10.2857142857143  L 14.3846153846154 11.1428571428571  L 13.9615384615385 11.1428571428571  L 13.9615384615385 9.9375  C 13.9615384615385 9.44642857142857  13.7984775641026 9.02455357142857  13.4723557692308 8.671875  C 13.146233974359 8.31919642857143  12.7451923076923 8.14285714285714  12.2692307692308 8.14285714285714  C 11.8020833333333 8.14285714285714  11.4032451923077 8.31026785714286  11.0727163461538 8.64508928571429  C 10.7421875 8.97991071428571  10.5769230769231 9.38392857142857  10.5769230769231 9.85714285714286  L 10.5769230769231 11.1428571428571  L 10.1538461538462 11.1428571428571  L 10.1538461538462 3.50892857142857  C 10.1538461538462 3.01785714285714  9.99078525641026 2.59598214285714  9.66466346153846 2.24330357142857  Z M 6.06850961538462 1.00446428571429  C 6.72956730769231 0.33482142857143  7.52724358974359 0  8.46153846153846 0  C 9.40464743589744 0  10.2045272435897 0.345982142857144  10.8611778846154 1.03794642857143  C 11.517828525641 1.72991071428571  11.8461538461538 2.55357142857143  11.8461538461538 3.50892857142857  L 11.8461538461538 6.45535714285714  C 12.0400641025641 6.4375  12.1810897435897 6.42857142857143  12.2692307692308 6.42857142857143  C 13.1418269230769 6.42857142857143  13.9042467948718 6.73660714285714  14.5564903846154 7.35267857142857  C 14.9707532051282 7.16517857142857  15.4070512820513 7.07142857142857  15.8653846153846 7.07142857142857  C 16.8613782051282 7.07142857142857  17.6722756410256 7.45982142857143  18.2980769230769 8.23660714285714  C 18.5360576923077 8.17410714285714  18.7828525641026 8.14285714285714  19.0384615384615 8.14285714285714  C 19.8669871794872 8.14285714285714  20.5677083333333 8.44419642857143  21.140625 9.046875  C 21.7135416666667 9.64955357142857  22 10.3705357142857  22 11.2098214285714  L 22 14.1160714285714  C 22 15.1517857142857  21.8766025641026 16.15625  21.6298076923077 17.1294642857143  L 20.4134615384615 22.0580357142857  C 20.2724358974359 22.6294642857143  19.9727564102564 23.0959821428571  19.5144230769231 23.4575892857143  C 19.0560897435897 23.8191964285714  18.5360576923077 24  17.9543269230769 24  L 8.46153846153846 24  C 7.93269230769231 24  7.42808493589744 23.8772321428571  6.94771634615385 23.6316964285714  C 6.46734775641026 23.3861607142857  6.06850961538462 23.0535714285714  5.75120192307692 22.6339285714286  L 0.674278846153846 15.7767857142857  C 0.224759615384615 15.1696428571429  0 14.4821428571429  0 13.7142857142857  C 0 12.7767857142857  0.32832532051282 11.9709821428571  0.984975961538462 11.296875  C 1.6416266025641 10.6227678571429  2.43269230769231 10.2857142857143  3.35817307692308 10.2857142857143  C 3.98397435897436 10.2857142857143  4.55689102564103 10.4419642857143  5.07692307692308 10.7544642857143  L 5.07692307692308 3.42857142857143  C 5.07692307692308 2.48214285714286  5.40745192307692 1.67410714285714  6.06850961538462 1.00446428571429  Z M 9.73076923076923 18.8571428571429  L 10.1538461538462 18.8571428571429  L 10.1538461538462 13.7142857142857  L 9.73076923076923 13.7142857142857  L 9.73076923076923 18.8571428571429  Z M 13.1153846153846 18.8571428571429  L 13.5384615384615 18.8571428571429  L 13.5384615384615 13.7142857142857  L 13.1153846153846 13.7142857142857  L 13.1153846153846 18.8571428571429  Z M 16.5 18.8571428571429  L 16.9230769230769 18.8571428571429  L 16.9230769230769 13.7142857142857  L 16.5 13.7142857142857  L 16.5 18.8571428571429  Z " fill-rule="nonzero" fill="#000000" stroke="none" transform="matrix(1 0 0 1 15 207 )" />
  </g>
</svg>