<?xml version="1.0" encoding="utf-8"?>
<svg version="1.1" xmlns:xlink="http://www.w3.org/1999/xlink" width="22px" height="20px" xmlns="http://www.w3.org/2000/svg">
  <g transform="matrix(1 0 0 1 -15 -252 )">
    <path d="M 11.1861979166667 1.83238636363636  C 11.1384548611111 1.82291666666667  11.0763888888889 1.81818181818182  11 1.81818181818182  C 10.4939236111111 1.81818181818182  10.0618489583333 1.99573863636364  9.70377604166667 2.35085227272727  C 9.345703125 2.70596590909091  9.16666666666667 3.1344696969697  9.16666666666667 3.63636363636364  L 9.16666666666667 5.45454545454545  L 8.70833333333333 5.45454545454545  L 8.70833333333333 4.13352272727273  C 8.70833333333333 3.67897727272727  8.55555555555556 3.29308712121212  8.25 2.97585227272727  C 7.94444444444445 2.65861742424242  7.5625 2.5  7.10416666666667 2.5  C 6.66493055555556 2.5  6.28776041666667 2.65625  5.97265625 2.96875  C 5.65755208333333 3.28125  5.5 3.65530303030303  5.5 4.09090909090909  L 5.5 10.1846590909091  L 5.04166666666667 9.75852272727273  L 5.04166666666667 7.31534090909091  C 5.04166666666667 6.86079545454545  4.88888888888889 6.4749053030303  4.58333333333333 6.15767045454545  C 4.27777777777778 5.84043560606061  3.89583333333333 5.68181818181818  3.4375 5.68181818181818  C 2.99826388888889 5.68181818181818  2.62109375 5.83806818181818  2.30598958333333 6.15056818181818  C 1.99088541666667 6.46306818181818  1.83333333333333 6.83712121212121  1.83333333333333 7.27272727272727  L 1.83333333333333 10.4545454545455  C 1.83333333333333 10.8996212121212  2.00043402777778 11.2878787878788  2.33463541666667 11.6193181818182  L 6.77473958333333 15.8238636363636  C 7.14713541666667 16.1931818181818  7.33333333333333 16.6761363636364  7.33333333333333 17.2727272727273  C 7.33333333333333 17.5189393939394  7.42404513888889 17.7320075757576  7.60546875 17.9119318181818  C 7.78689236111111 18.0918560606061  8.00173611111111 18.1818181818182  8.25 18.1818181818182  L 17.4166666666667 18.1818181818182  C 17.6649305555556 18.1818181818182  17.8797743055556 18.0918560606061  18.0611979166667 17.9119318181818  C 18.2426215277778 17.7320075757576  18.3333333333333 17.5189393939394  18.3333333333333 17.2727272727273  L 18.3333333333333 16.9176136363636  C 18.3333333333333 16.5293560606061  18.3810763888889 16.1647727272727  18.4765625 15.8238636363636  L 20.0234375 9.63068181818182  C 20.1189236111111 9.28977272727273  20.1666666666667 8.92518939393939  20.1666666666667 8.53693181818182  L 20.1666666666667 5.04261363636363  C 20.1666666666667 4.58806818181818  20.0138888888889 4.20217803030303  19.7083333333333 3.88494318181818  C 19.4027777777778 3.56770833333333  19.0208333333333 3.40909090909091  18.5625 3.40909090909091  C 18.1232638888889 3.40909090909091  17.74609375 3.56534090909091  17.4309895833333 3.87784090909091  C 17.1158854166667 4.19034090909091  16.9583333333333 4.56439393939394  16.9583333333333 5  L 16.9583333333333 5.45454545454545  L 16.5 5.45454545454545  L 16.5 3.67897727272727  C 16.5 3.30018939393939  16.3806423611111 2.95691287878788  16.1419270833333 2.64914772727273  C 15.9032118055556 2.34138257575758  15.59765625 2.14962121212121  15.2252604166667 2.07386363636364  C 15.0915798611111 2.05492424242424  14.9817708333333 2.04545454545455  14.8958333333333 2.04545454545455  C 14.4565972222222 2.04545454545455  14.0794270833333 2.20170454545455  13.7643229166667 2.51420454545455  C 13.44921875 2.82670454545455  13.2916666666667 3.20075757575758  13.2916666666667 3.63636363636364  L 13.2916666666667 5.45454545454545  L 12.8333333333333 5.45454545454545  L 12.8333333333333 3.72159090909091  C 12.8333333333333 3.23863636363636  12.6781684027778 2.81486742424242  12.3678385416667 2.45028409090909  C 12.0575086805556 2.08570075757576  11.6636284722222 1.87973484848485  11.1861979166667 1.83238636363636  Z M 8.5078125 0.980113636363635  C 9.1953125 0.326704545454546  10.0260416666667 0  11 0  C 11.8020833333333 0  12.5134548611111 0.236742424242422  13.1341145833333 0.710227272727273  C 13.6783854166667 0.388257575757576  14.265625 0.227272727272727  14.8958333333333 0.227272727272727  C 15.4592013888889 0.227272727272727  15.9891493055556 0.355113636363635  16.4856770833333 0.610795454545454  C 16.9822048611111 0.866477272727273  17.3927951388889 1.22632575757576  17.7174479166667 1.69034090909091  C 17.9752604166667 1.62405303030303  18.2569444444444 1.59090909090909  18.5625 1.59090909090909  C 19.5173611111111 1.59090909090909  20.3289930555556 1.92945075757576  20.9973958333333 2.60653409090909  C 21.6657986111111 3.28361742424242  22 4.09564393939394  22 5.04261363636363  L 22 8.53693181818182  C 22 9.01988636363637  21.9379340277778 9.53125  21.8138020833333 10.0710227272727  L 20.2526041666667 16.2642045454545  C 20.1953125 16.4914772727273  20.1666666666667 16.8276515151515  20.1666666666667 17.2727272727273  C 20.1666666666667 18.030303030303  19.8993055555556 18.6742424242424  19.3645833333333 19.2045454545455  C 18.8298611111111 19.7348484848485  18.1805555555556 20  17.4166666666667 20  L 8.25 20  C 7.44791666666667 20  6.7890625 19.7230113636364  6.2734375 19.1690340909091  C 5.7578125 18.6150568181818  5.5 17.9403409090909  5.5 17.1448863636364  L 1.08854166666667 12.9403409090909  C 0.362847222222222 12.249053030303  0 11.4204545454545  0 10.4545454545455  L 0 7.27272727272727  C 0 6.33522727272727  0.336588541666667 5.53267045454545  1.009765625 4.86505681818182  C 1.68294270833333 4.19744318181818  2.4921875 3.86363636363636  3.4375 3.86363636363636  C 3.54253472222222 3.86363636363636  3.61892361111111 3.86837121212121  3.66666666666667 3.87784090909091  C 3.72395833333333 2.9782196969697  4.08441840277778 2.22064393939394  4.748046875 1.60511363636364  C 5.41167534722222 0.98958333333333  6.19704861111111 0.681818181818181  7.10416666666667 0.681818181818181  C 7.60069444444445 0.681818181818181  8.06857638888889 0.78125  8.5078125 0.980113636363635  Z " fill-rule="nonzero" fill="#000000" stroke="none" transform="matrix(1 0 0 1 15 252 )" />
  </g>
</svg>