<?xml version="1.0" encoding="utf-8"?>
<svg version="1.1" xmlns:xlink="http://www.w3.org/1999/xlink" width="22px" height="19px" xmlns="http://www.w3.org/2000/svg">
  <g transform="matrix(1 0 0 1 -15 -295 )">
    <path d="M 2.0625 0  L 12.3642578125 0  C 12.8011067708333 0  13.2164713541667 0.098958333333334  13.6103515625 0.296875  C 14.0042317708333 0.494791666666666  14.330078125 0.766927083333332  14.587890625 1.11328125  L 20.732421875 9.39397321428572  C 21.5774739583333 10.5178571428571  22 11.7866443452381  22 13.2003348214286  L 22 16.9642857142857  C 22 17.5297619047619  21.7994791666667 18.0104166666667  21.3984375 18.40625  C 20.9973958333333 18.8020833333333  20.5104166666667 19  19.9375 19  L 15.8125 19  C 15.2395833333333 19  14.7526041666667 18.8020833333333  14.3515625 18.40625  C 13.9505208333333 18.0104166666667  13.75 17.5297619047619  13.75 16.9642857142857  L 13.75 15.0876116071429  L 10.677734375 13.5714285714286  L 4.8125 13.5714285714286  C 4.23958333333333 13.5714285714286  3.75260416666667 13.3735119047619  3.3515625 12.9776785714286  C 2.95052083333333 12.5818452380952  2.75 12.1011904761905  2.75 11.5357142857143  L 2.75 11.1964285714286  C 2.75 10.3552827380952  3.05257161458333 9.63606770833333  3.65771484375 9.03878348214286  C 4.26285807291667 8.44149925595238  4.99153645833333 8.14285714285714  5.84375 8.14285714285714  L 10.35546875 8.14285714285714  L 10.806640625 6.78571428571428  L 3.4375 6.78571428571428  C 2.72135416666667 6.78571428571428  2.10009765625 6.54715401785714  1.57373046875 6.07003348214286  C 1.04736328125 5.59291294642857  0.755533854166667 5.00446428571428  0.6982421875 4.3046875  C 0.232747395833333 3.74627976190476  0 3.10305059523809  0 2.375  L 0 2.03571428571428  C 0 1.47023809523809  0.200520833333333 0.989583333333332  0.6015625 0.59375  C 1.00260416666667 0.197916666666668  1.48958333333333 0  2.0625 0  Z M 20.4208984375 17.44140625  C 20.5569661458333 17.3071056547619  20.625 17.1480654761905  20.625 16.9642857142857  L 20.625 13.2003348214286  C 20.625 12.090587797619  20.2919921875 11.0868675595238  19.6259765625 10.1891741071429  L 13.470703125 1.90848214285714  C 13.19140625 1.54092261904762  12.8225911458333 1.35714285714286  12.3642578125 1.35714285714286  L 2.0625 1.35714285714286  C 1.87630208333333 1.35714285714286  1.71516927083333 1.4242931547619  1.5791015625 1.55859375  C 1.44303385416667 1.69289434523809  1.375 1.85193452380952  1.375 2.03571428571428  C 1.375 2.26190476190476  1.38037109375 2.43684895833333  1.39111328125 2.560546875  C 1.40185546875 2.68424479166667  1.43587239583333 2.82738095238095  1.4931640625 2.98995535714286  C 1.55045572916667 3.15252976190476  1.63997395833333 3.30450148809524  1.76171875 3.44587053571428  C 1.83333333333333 3.22674851190476  1.96044921875 3.05003720238095  2.14306640625 2.91573660714286  C 2.32568359375 2.78143601190476  2.52799479166667 2.71428571428572  2.75 2.71428571428572  L 11.6875 2.71428571428572  L 11.6875 3.05357142857143  L 2.75 3.05357142857143  C 2.56380208333333 3.05357142857143  2.40266927083333 3.12072172619048  2.2666015625 3.25502232142857  C 2.13053385416667 3.38932291666667  2.0625 3.54836309523809  2.0625 3.73214285714286  C 2.0625 4.04315476190476  2.0732421875 4.24813988095238  2.0947265625 4.34709821428572  C 2.15201822916667 4.65811011904762  2.3095703125 4.91610863095238  2.5673828125 5.12109375  C 2.8251953125 5.32607886904762  3.115234375 5.42857142857143  3.4375 5.42857142857143  L 10.3125 5.42857142857143  L 11.2900390625 5.42857142857143  C 11.5764973958333 5.42857142857143  11.8199869791667 5.52752976190476  12.0205078125 5.72544642857143  C 12.2210286458333 5.92336309523809  12.3212890625 6.16369047619048  12.3212890625 6.44642857142857  C 12.3212890625 6.55245535714286  12.3033854166667 6.65848214285714  12.267578125 6.76450892857143  L 11.580078125 8.80022321428572  C 11.5084635416667 9.00520833333333  11.3831380208333 9.17308407738095  11.2041015625 9.30385044642857  C 11.0250651041667 9.43461681547619  10.8245442708333 9.5  10.6025390625 9.5  L 5.84375 9.5  C 5.37109375 9.5  4.96647135416667 9.66610863095238  4.6298828125 9.99832589285714  C 4.29329427083333 10.3305431547619  4.125 10.7299107142857  4.125 11.1964285714286  L 4.125 11.5357142857143  C 4.125 11.719494047619  4.19303385416667 11.8785342261905  4.3291015625 12.0128348214286  C 4.46516927083333 12.1471354166667  4.62630208333333 12.2142857142857  4.8125 12.2142857142857  L 10.8388671875 12.2142857142857  C 10.9534505208333 12.2142857142857  11.0572916666667 12.239025297619  11.150390625 12.2885044642857  L 14.5556640625 13.9637276785714  C 14.7275390625 14.0556175595238  14.8653971354167 14.182849702381  14.96923828125 14.3454241071429  C 15.0730794270833 14.5079985119048  15.125 14.6847098214286  15.125 14.8755580357143  L 15.125 16.9642857142857  C 15.125 17.1480654761905  15.1930338541667 17.3071056547619  15.3291015625 17.44140625  C 15.4651692708333 17.5757068452381  15.6263020833333 17.6428571428571  15.8125 17.6428571428571  L 19.9375 17.6428571428571  C 20.1236979166667 17.6428571428571  20.2848307291667 17.5757068452381  20.4208984375 17.44140625  Z " fill-rule="nonzero" fill="#000000" stroke="none" transform="matrix(1 0 0 1 15 295 )" />
  </g>
</svg>