<?xml version="1.0" encoding="utf-8"?>
<svg version="1.1" xmlns:xlink="http://www.w3.org/1999/xlink" width="45px" height="32px" xmlns="http://www.w3.org/2000/svg">
  <g transform="matrix(1 0 0 1 -17 -15 )">
    <path d="M 13.5 16  L 15.75 13.7142857142857  L 24.75 22.8571428571429  L 15.75 32  L 0 16  L 15.75 0  L 19.6875 4  L 17.4375 6.28571428571428  L 15.75 4.57142857142857  L 4.5 16  L 15.75 27.4285714285714  L 20.2734375 22.8333333333333  L 13.5 16  Z M 20.25 9.14285714285714  L 29.25 0  L 45 16  L 29.25 32  L 25.3125 28  L 27.5625 25.7142857142857  L 29.25 27.4285714285714  L 40.5 16  L 29.25 4.57142857142857  L 24.7265625 9.16666666666667  L 31.5 16  L 29.25 18.2857142857143  L 20.25 9.14285714285714  Z " fill-rule="nonzero" fill="#aaaaaa" stroke="none" transform="matrix(1 0 0 1 17 15 )" />
  </g>
</svg>