<?xml version="1.0" encoding="utf-8"?>
<svg version="1.1" xmlns:xlink="http://www.w3.org/1999/xlink" width="13px" height="15px" xmlns="http://www.w3.org/2000/svg">
  <g transform="matrix(1 0 0 1 -970 -23 )">
    <path d="M 9.78385416666667 0.569196428571429  L 12.4244791666667 3.18080357142857  C 12.5824652777778 3.33705357142857  12.7178819444444 3.54910714285714  12.8307291666667 3.81696428571429  C 12.9435763888889 4.08482142857143  13 4.33035714285714  13 4.55357142857143  L 13 14.1964285714286  C 13 14.4196428571429  12.9210069444444 14.609375  12.7630208333333 14.765625  C 12.6050347222222 14.921875  12.4131944444444 15  12.1875 15  L 0.8125 15  C 0.586805555555556 15  0.394965277777778 14.921875  0.236979166666667 14.765625  C 0.0789930555555556 14.609375  0 14.4196428571429  0 14.1964285714286  L 0 0.803571428571429  C 0 0.580357142857142  0.0789930555555556 0.390624999999999  0.236979166666667 0.234375  C 0.394965277777778 0.0781250000000006  0.586805555555556 0  0.8125 0  L 8.39583333333333 0  C 8.62152777777778 0  8.86979166666667 0.0558035714285721  9.140625 0.167410714285715  C 9.41145833333333 0.279017857142857  9.62586805555556 0.412946428571428  9.78385416666667 0.569196428571429  Z M 9.013671875 1.32254464285714  C 8.94596354166667 1.25558035714286  8.83029513888889 1.19419642857143  8.66666666666667 1.13839285714286  L 8.66666666666667 4.28571428571429  L 11.8489583333333 4.28571428571429  C 11.7925347222222 4.12388392857143  11.73046875 4.00948660714286  11.6627604166667 3.94252232142857  L 9.013671875 1.32254464285714  Z M 1 14  L 11.9166666666667 14  L 11.9166666666667 5.35714285714286  L 8.39583333333333 5.35714285714286  C 8.17013888888889 5.35714285714286  7.97829861111111 5.27901785714286  7.8203125 5.12276785714286  C 7.66232638888889 4.96651785714286  7.58333333333333 4.77678571428571  7.58333333333333 4.55357142857143  L 7.58333333333333 1.07142857142857  L 1 1.07142857142857  L 1 14  Z M 2.14973958333333 8.94810267857143  L 4.0625 6.42857142857143  C 4.10763888888889 6.3671875  4.16688368055556 6.33231026785714  4.240234375 6.32393973214286  C 4.31358506944444 6.31556919642857  4.38129340277778 6.33370535714286  4.443359375 6.37834821428571  L 4.875 6.69642857142857  C 4.93706597222222 6.74107142857143  4.97233072916667 6.79966517857143  4.98079427083333 6.87220982142857  C 4.9892578125 6.94475446428571  4.97092013888889 7.01171875  4.92578125 7.07310267857143  L 3.38541666666667 9.10714285714286  L 4.92578125 11.1411830357143  C 4.97092013888889 11.2025669642857  4.9892578125 11.26953125  4.98079427083333 11.3420758928571  C 4.97233072916667 11.4146205357143  4.93706597222222 11.4732142857143  4.875 11.5178571428571  L 4.443359375 11.8359375  C 4.38129340277778 11.8805803571429  4.31358506944444 11.8987165178571  4.240234375 11.8903459821429  C 4.16688368055556 11.8819754464286  4.10763888888889 11.8470982142857  4.0625 11.7857142857143  L 2.14973958333333 9.26618303571428  C 2.07074652777778 9.16015625  2.07074652777778 9.05412946428571  2.14973958333333 8.94810267857143  Z M 8.9375 6.42857142857143  L 10.8502604166667 8.94810267857143  C 10.9292534722222 9.05412946428571  10.9292534722222 9.16015625  10.8502604166667 9.26618303571428  L 8.9375 11.7857142857143  C 8.89236111111111 11.8470982142857  8.83311631944444 11.8819754464286  8.759765625 11.8903459821429  C 8.68641493055556 11.8987165178571  8.61870659722222 11.8805803571429  8.556640625 11.8359375  L 8.125 11.5178571428571  C 8.06293402777778 11.4732142857143  8.02766927083333 11.4146205357143  8.01920572916667 11.3420758928571  C 8.0107421875 11.26953125  8.02907986111111 11.2025669642857  8.07421875 11.1411830357143  L 9.61458333333333 9.10714285714286  L 8.07421875 7.07310267857143  C 8.02907986111111 7.01171875  8.0107421875 6.94475446428571  8.01920572916667 6.87220982142857  C 8.02766927083333 6.79966517857143  8.06293402777778 6.74107142857143  8.125 6.69642857142857  L 8.556640625 6.37834821428571  C 8.61870659722222 6.33370535714286  8.68641493055556 6.31556919642857  8.759765625 6.32393973214286  C 8.83311631944444 6.33231026785714  8.89236111111111 6.3671875  8.9375 6.42857142857143  Z M 6.13606770833333 12.890625  L 5.60286458333333 12.8069196428571  C 5.52951388888889 12.7957589285714  5.4716796875 12.7594866071429  5.42936197916667 12.6981026785714  C 5.38704427083333 12.63671875  5.37152777777778 12.5697544642857  5.3828125 12.4972098214286  L 6.55078125 5.54129464285714  C 6.56206597222222 5.46875  6.59874131944444 5.41155133928571  6.66080729166667 5.36969866071429  C 6.72287326388889 5.32784598214286  6.79058159722222 5.3125  6.86393229166667 5.32366071428571  L 7.39713541666667 5.40736607142857  C 7.47048611111111 5.41852678571428  7.5283203125 5.45479910714286  7.57063802083333 5.51618303571429  C 7.61295572916667 5.57756696428571  7.62847222222222 5.64453125  7.6171875 5.71707589285714  L 6.44921875 12.6729910714286  C 6.43793402777778 12.7455357142857  6.40125868055556 12.802734375  6.33919270833333 12.8445870535714  C 6.27712673611111 12.8864397321429  6.20941840277778 12.9017857142857  6.13606770833333 12.890625  Z " fill-rule="nonzero" fill="#aaaaaa" stroke="none" transform="matrix(1 0 0 1 970 23 )" />
  </g>
</svg>