<?xml version="1.0" encoding="utf-8"?>
<svg version="1.1" xmlns:xlink="http://www.w3.org/1999/xlink" width="18px" height="15px" xmlns="http://www.w3.org/2000/svg">
  <g transform="matrix(1 0 0 1 -893 -23 )">
    <path d="M 10.875 10.5  L 11.98828125 8.25  L 15.69140625 8.25  C 15.68359375 8.2265625  15.673828125 8.193359375  15.662109375 8.150390625  C 15.650390625 8.107421875  15.640625 8.078125  15.6328125 8.0625  L 13.1484375 2.25  L 4.8515625 2.25  L 2.3671875 8.0625  C 2.359375 8.0859375  2.349609375 8.119140625  2.337890625 8.162109375  C 2.326171875 8.205078125  2.31640625 8.234375  2.30859375 8.25  L 6.01171875 8.25  L 7.125 10.5  L 10.875 10.5  Z M 17.70703125 7.16015625  C 17.90234375 7.63671875  18 8.1171875  18 8.6015625  L 18 14.25  C 18 14.453125  17.92578125 14.62890625  17.77734375 14.77734375  C 17.62890625 14.92578125  17.453125 15  17.25 15  L 0.75 15  C 0.546875 15  0.37109375 14.92578125  0.22265625 14.77734375  C 0.07421875 14.62890625  0 14.453125  0 14.25  L 0 8.6015625  C 0 8.1171875  0.09765625 7.63671875  0.29296875 7.16015625  L 3.08203125 0.691406250000001  C 3.16015625 0.496093749999998  3.302734375 0.332031249999999  3.509765625 0.19921875  C 3.716796875 0.0664062499999979  3.921875 0  4.125 0  L 13.875 0  C 14.078125 0  14.283203125 0.0664062499999979  14.490234375 0.19921875  C 14.697265625 0.332031249999999  14.83984375 0.496093749999998  14.91796875 0.691406250000001  L 17.70703125 7.16015625  Z " fill-rule="nonzero" fill="#f59a23" stroke="none" transform="matrix(1 0 0 1 893 23 )" />
  </g>
</svg>