<?xml version="1.0" encoding="utf-8"?>
<svg version="1.1" xmlns:xlink="http://www.w3.org/1999/xlink" width="17px" height="15px" xmlns="http://www.w3.org/2000/svg">
  <g transform="matrix(1 0 0 1 -262 -148 )">
    <path d="M 2.42857142857143 2.1  C 4.00967261904762 2.1  5.3061755952381 2.803125  6.31808035714286 4.209375  C 5.93861607142857 4.784375  5.5053943452381 5.6375  5.01841517857143 6.76875  C 4.87927827380952 6.4875  4.76227678571429 6.2609375  4.66741071428571 6.0890625  C 4.57254464285714 5.9171875  4.44447544642857 5.71875  4.283203125 5.49375  C 4.12193080357143 5.26875  3.96065848214286 5.0921875  3.79938616071429 4.9640625  C 3.63811383928571 4.8359375  3.43889508928571 4.7265625  3.20172991071429 4.6359375  C 2.96456473214286 4.5453125  2.70684523809524 4.5  2.42857142857143 4.5  L 0.303571428571429 4.5  C 0.215029761904762 4.5  0.142299107142857 4.471875  0.0853794642857143 4.415625  C 0.0284598214285714 4.359375  0 4.2875  0 4.2  L 0 2.4  C 0 2.3125  0.0284598214285714 2.240625  0.0853794642857143 2.184375  C 0.142299107142857 2.128125  0.215029761904762 2.1  0.303571428571429 2.1  L 2.42857142857143 2.1  Z M 16.9146205357143 11.484375  C 16.9715401785714 11.540625  17 11.6125  17 11.7  C 17 11.7875  16.9715401785714 11.859375  16.9146205357143 11.915625  L 13.87890625 14.915625  C 13.8219866071429 14.971875  13.749255952381 15  13.6607142857143 15  C 13.5784970238095 15  13.5073474702381 14.9703125  13.447265625 14.9109375  C 13.3871837797619 14.8515625  13.3571428571429 14.78125  13.3571428571429 14.7  L 13.3571428571429 12.9  C 13.1547619047619 12.9  12.885974702381 12.9015625  12.55078125 12.9046875  C 12.215587797619 12.9078125  11.9594494047619 12.9109375  11.7823660714286 12.9140625  C 11.6052827380952 12.9171875  11.3744419642857 12.9140625  11.08984375 12.9046875  C 10.8052455357143 12.8953125  10.5807291666667 12.8796875  10.4162946428571 12.8578125  C 10.2518601190476 12.8359375  10.0494791666667 12.803125  9.80915178571429 12.759375  C 9.56882440476191 12.715625  9.36960565476191 12.6578125  9.21149553571429 12.5859375  C 9.05338541666667 12.5140625  8.86997767857143 12.425  8.66127232142857 12.31875  C 8.45256696428572 12.2125  8.26599702380952 12.0875  8.1015625 11.94375  C 7.93712797619048 11.8  7.7632068452381 11.6328125  7.57979910714286 11.4421875  C 7.39639136904762 11.2515625  7.21930803571429 11.034375  7.04854910714286 10.790625  C 7.42168898809524 10.209375  7.85174851190476 9.35625  8.33872767857143 8.23125  C 8.47786458333333 8.5125  8.59486607142857 8.7390625  8.68973214285714 8.9109375  C 8.78459821428571 9.0828125  8.91266741071429 9.28125  9.07393973214286 9.50625  C 9.23521205357143 9.73125  9.396484375 9.9078125  9.55775669642857 10.0359375  C 9.71902901785714 10.1640625  9.91824776785714 10.2734375  10.1554129464286 10.3640625  C 10.392578125 10.4546875  10.6502976190476 10.5  10.9285714285714 10.5  L 13.3571428571429 10.5  L 13.3571428571429 8.7  C 13.3571428571429 8.6125  13.3856026785714 8.540625  13.4425223214286 8.484375  C 13.4994419642857 8.428125  13.5721726190476 8.4  13.6607142857143 8.4  C 13.7366071428571 8.4  13.8125 8.43125  13.8883928571429 8.49375  L 16.9146205357143 11.484375  Z M 16.9146205357143 3.084375  C 16.9715401785714 3.140625  17 3.2125  17 3.3  C 17 3.3875  16.9715401785714 3.459375  16.9146205357143 3.515625  L 13.87890625 6.515625  C 13.8219866071429 6.571875  13.749255952381 6.6  13.6607142857143 6.6  C 13.5784970238095 6.6  13.5073474702381 6.5703125  13.447265625 6.5109375  C 13.3871837797619 6.4515625  13.3571428571429 6.38125  13.3571428571429 6.3  L 13.3571428571429 4.5  L 10.9285714285714 4.5  C 10.625 4.5  10.3498883928571 4.546875  10.1032366071429 4.640625  C 9.85658482142857 4.734375  9.63839285714286 4.875  9.44866071428571 5.0625  C 9.25892857142857 5.25  9.09765625 5.4421875  8.96484375 5.6390625  C 8.83203125 5.8359375  8.68973214285714 6.078125  8.53794642857143 6.365625  C 8.33556547619048 6.753125  8.08891369047619 7.2875  7.79799107142857 7.96875  C 7.61458333333333 8.38125  7.45805431547619 8.728125  7.32840401785714 9.009375  C 7.1987537202381 9.290625  7.02799479166667 9.61875  6.81612723214286 9.99375  C 6.60425967261905 10.36875  6.4018787202381 10.68125  6.208984375 10.93125  C 6.01609002976191 11.18125  5.78208705357143 11.440625  5.50697544642857 11.709375  C 5.23186383928571 11.978125  4.947265625 12.1921875  4.65318080357143 12.3515625  C 4.35909598214286 12.5109375  4.02232142857143 12.6421875  3.64285714285714 12.7453125  C 3.26339285714286 12.8484375  2.85863095238095 12.9  2.42857142857143 12.9  L 0.303571428571429 12.9  C 0.215029761904762 12.9  0.142299107142857 12.871875  0.0853794642857143 12.815625  C 0.0284598214285714 12.759375  0 12.6875  0 12.6  L 0 10.8  C 0 10.7125  0.0284598214285714 10.640625  0.0853794642857143 10.584375  C 0.142299107142857 10.528125  0.215029761904762 10.5  0.303571428571429 10.5  L 2.42857142857143 10.5  C 2.73214285714286 10.5  3.00725446428571 10.453125  3.25390625 10.359375  C 3.50055803571429 10.265625  3.71875 10.125  3.90848214285714 9.9375  C 4.09821428571429 9.75  4.25948660714286 9.5578125  4.39229910714286 9.3609375  C 4.52511160714286 9.1640625  4.66741071428571 8.921875  4.81919642857143 8.634375  C 5.02157738095238 8.246875  5.26822916666667 7.7125  5.55915178571429 7.03125  C 5.74255952380952 6.61875  5.89908854166667 6.271875  6.02873883928571 5.990625  C 6.15838913690476 5.709375  6.32914806547619 5.38125  6.541015625 5.00625  C 6.75288318452381 4.63125  6.95526413690476 4.31875  7.14815848214286 4.06875  C 7.34105282738095 3.81875  7.57505580357143 3.559375  7.85016741071429 3.290625  C 8.12527901785714 3.021875  8.40987723214286 2.8078125  8.70396205357143 2.6484375  C 8.998046875 2.4890625  9.33482142857143 2.3578125  9.71428571428571 2.2546875  C 10.09375 2.1515625  10.4985119047619 2.1  10.9285714285714 2.1  L 13.3571428571429 2.1  L 13.3571428571429 0.3  C 13.3571428571429 0.212499999999998  13.3856026785714 0.140625  13.4425223214286 0.0843749999999999  C 13.4994419642857 0.0281249999999994  13.5721726190476 0  13.6607142857143 0  C 13.7366071428571 0  13.8125 0.0312499999999999  13.8883928571429 0.0937499999999997  L 16.9146205357143 3.084375  Z " fill-rule="nonzero" fill="#aaaaaa" stroke="none" transform="matrix(1 0 0 1 262 148 )" />
  </g>
</svg>