<?xml version="1.0" encoding="utf-8"?>
<svg version="1.1" xmlns:xlink="http://www.w3.org/1999/xlink" width="15px" height="15px" xmlns="http://www.w3.org/2000/svg">
  <g transform="matrix(1 0 0 1 -263 -179 )">
    <path d="M 3.82662259615385 11.3151041666667  C 4.05198317307692 11.5321180555556  4.16466346153846 11.7939814814815  4.16466346153846 12.1006944444444  C 4.16466346153846 12.4074074074074  4.05198317307692 12.6692708333333  3.82662259615385 12.8862847222222  C 3.60126201923077 13.1032986111111  3.32932692307692 13.2118055555556  3.01081730769231 13.2118055555556  C 2.69831730769231 13.2118055555556  2.42788461538462 13.1018518518519  2.19951923076923 12.8819444444444  C 1.97115384615385 12.662037037037  1.85697115384615 12.4016203703704  1.85697115384615 12.1006944444444  C 1.85697115384615 11.7939814814815  1.96965144230769 11.5321180555556  2.19501201923077 11.3151041666667  C 2.42037259615385 11.0980902777778  2.69230769230769 10.9895833333333  3.01081730769231 10.9895833333333  C 3.32932692307692 10.9895833333333  3.60126201923077 11.0980902777778  3.82662259615385 11.3151041666667  Z M 8.31580528846154 13.1032986111111  C 8.54116586538462 13.3203125  8.65384615384615 13.5821759259259  8.65384615384615 13.8888888888889  C 8.65384615384615 14.1956018518519  8.54116586538462 14.4574652777778  8.31580528846154 14.6744791666667  C 8.09044471153846 14.8914930555556  7.81850961538462 15  7.5 15  C 7.18149038461539 15  6.90955528846154 14.8914930555556  6.68419471153846 14.6744791666667  C 6.45883413461538 14.4574652777778  6.34615384615385 14.1956018518519  6.34615384615385 13.8888888888889  C 6.34615384615385 13.5821759259259  6.45883413461538 13.3203125  6.68419471153846 13.1032986111111  C 6.90955528846154 12.8862847222222  7.18149038461539 12.7777777777778  7.5 12.7777777777778  C 7.81850961538462 12.7777777777778  8.09044471153846 12.8862847222222  8.31580528846154 13.1032986111111  Z M 1.96965144230769 6.9921875  C 2.19501201923077 7.20920138888889  2.30769230769231 7.47106481481481  2.30769230769231 7.77777777777778  C 2.30769230769231 8.08449074074074  2.19501201923077 8.34635416666667  1.96965144230769 8.56336805555556  C 1.74429086538462 8.78038194444444  1.47235576923077 8.88888888888889  1.15384615384615 8.88888888888889  C 0.835336538461539 8.88888888888889  0.563401442307692 8.78038194444444  0.338040865384615 8.56336805555556  C 0.112680288461538 8.34635416666667  0 8.08449074074074  0 7.77777777777778  C 0 7.47106481481481  0.112680288461538 7.20920138888889  0.338040865384615 6.9921875  C 0.563401442307692 6.77517361111111  0.835336538461539 6.66666666666667  1.15384615384615 6.66666666666667  C 1.47235576923077 6.66666666666667  1.74429086538462 6.77517361111111  1.96965144230769 6.9921875  Z M 12.8049879807692 11.3151041666667  C 13.0303485576923 11.5321180555556  13.1430288461538 11.7939814814815  13.1430288461538 12.1006944444444  C 13.1430288461538 12.4016203703704  13.0288461538462 12.662037037037  12.8004807692308 12.8819444444444  C 12.5721153846154 13.1018518518519  12.3016826923077 13.2118055555556  11.9891826923077 13.2118055555556  C 11.6706730769231 13.2118055555556  11.3987379807692 13.1032986111111  11.1733774038462 12.8862847222222  C 10.9480168269231 12.6692708333333  10.8353365384615 12.4074074074074  10.8353365384615 12.1006944444444  C 10.8353365384615 11.7939814814815  10.9480168269231 11.5321180555556  11.1733774038462 11.3151041666667  C 11.3987379807692 11.0980902777778  11.6706730769231 10.9895833333333  11.9891826923077 10.9895833333333  C 12.3076923076923 10.9895833333333  12.5796274038462 11.0980902777778  12.8049879807692 11.3151041666667  Z M 4.02944711538462 2.47395833333333  C 4.31189903846154 2.74594907407407  4.453125 3.07291666666667  4.453125 3.45486111111111  C 4.453125 3.83680555555556  4.31189903846154 4.16377314814815  4.02944711538462 4.43576388888889  C 3.74699519230769 4.70775462962963  3.40745192307692 4.84375  3.01081730769231 4.84375  C 2.61418269230769 4.84375  2.27463942307692 4.70775462962963  1.9921875 4.43576388888889  C 1.70973557692308 4.16377314814815  1.56850961538462 3.83680555555556  1.56850961538462 3.45486111111111  C 1.56850961538462 3.07291666666667  1.70973557692308 2.74594907407407  1.9921875 2.47395833333333  C 2.27463942307692 2.20196759259259  2.61418269230769 2.06597222222222  3.01081730769231 2.06597222222222  C 3.40745192307692 2.06597222222222  3.74699519230769 2.20196759259259  4.02944711538462 2.47395833333333  Z M 14.6619591346154 6.9921875  C 14.8873197115385 7.20920138888889  15 7.47106481481481  15 7.77777777777778  C 15 8.08449074074074  14.8873197115385 8.34635416666667  14.6619591346154 8.56336805555556  C 14.4365985576923 8.78038194444444  14.1646634615385 8.88888888888889  13.8461538461538 8.88888888888889  C 13.5276442307692 8.88888888888889  13.2557091346154 8.78038194444444  13.0303485576923 8.56336805555556  C 12.8049879807692 8.34635416666667  12.6923076923077 8.08449074074074  12.6923076923077 7.77777777777778  C 12.6923076923077 7.47106481481481  12.8049879807692 7.20920138888889  13.0303485576923 6.9921875  C 13.2557091346154 6.77517361111111  13.5276442307692 6.66666666666667  13.8461538461538 6.66666666666667  C 14.1646634615385 6.66666666666667  14.4365985576923 6.77517361111111  14.6619591346154 6.9921875  Z M 8.72596153846154 0.486111111111112  C 9.0625 0.810185185185184  9.23076923076923 1.2037037037037  9.23076923076923 1.66666666666667  C 9.23076923076923 2.12962962962963  9.0625 2.52314814814815  8.72596153846154 2.84722222222222  C 8.38942307692308 3.1712962962963  7.98076923076923 3.33333333333333  7.5 3.33333333333333  C 7.01923076923077 3.33333333333333  6.61057692307692 3.1712962962963  6.27403846153846 2.84722222222222  C 5.9375 2.52314814814815  5.76923076923077 2.12962962962963  5.76923076923077 1.66666666666667  C 5.76923076923077 1.2037037037037  5.9375 0.810185185185184  6.27403846153846 0.486111111111112  C 6.61057692307692 0.162037037037038  7.01923076923077 0  7.5 0  C 7.98076923076923 0  8.38942307692308 0.162037037037038  8.72596153846154 0.486111111111112  Z M 13.4134615384615 2.08333333333333  C 13.8100961538462 2.46527777777778  14.0084134615385 2.9224537037037  14.0084134615385 3.45486111111111  C 14.0084134615385 3.99305555555556  13.8100961538462 4.45167824074074  13.4134615384615 4.83072916666667  C 13.0168269230769 5.20978009259259  12.5420673076923 5.39930555555556  11.9891826923077 5.39930555555556  C 11.4302884615385 5.39930555555556  10.9540264423077 5.20978009259259  10.5603966346154 4.83072916666667  C 10.1667668269231 4.45167824074074  9.96995192307692 3.99305555555556  9.96995192307692 3.45486111111111  C 9.96995192307692 2.9224537037037  10.1667668269231 2.46527777777778  10.5603966346154 2.08333333333333  C 10.9540264423077 1.70138888888889  11.4302884615385 1.51041666666667  11.9891826923077 1.51041666666667  C 12.5420673076923 1.51041666666667  13.0168269230769 1.70138888888889  13.4134615384615 2.08333333333333  Z " fill-rule="nonzero" fill="#aaaaaa" stroke="none" transform="matrix(1 0 0 1 263 179 )" />
  </g>
</svg>