<?xml version="1.0" encoding="utf-8"?>
<svg version="1.1" xmlns:xlink="http://www.w3.org/1999/xlink" width="16px" height="16px" xmlns="http://www.w3.org/2000/svg">
  <g transform="matrix(1 0 0 1 -995 -64 )">
    <path d="M 1.23076923076923 12.2857142857143  L 1.23076923076923 14.8571428571429  L 4 14.8571428571429  L 4 12.2857142857143  L 1.23076923076923 12.2857142857143  Z M 4.61538461538462 12.2857142857143  L 4.61538461538462 14.8571428571429  L 7.69230769230769 14.8571428571429  L 7.69230769230769 12.2857142857143  L 4.61538461538462 12.2857142857143  Z M 1.23076923076923 8.85714285714286  L 1.23076923076923 11.7142857142857  L 4 11.7142857142857  L 4 8.85714285714286  L 1.23076923076923 8.85714285714286  Z M 4.61538461538462 8.85714285714286  L 4.61538461538462 11.7142857142857  L 7.69230769230769 11.7142857142857  L 7.69230769230769 8.85714285714286  L 4.61538461538462 8.85714285714286  Z M 1.23076923076923 5.71428571428571  L 1.23076923076923 8.28571428571428  L 4 8.28571428571428  L 4 5.71428571428571  L 1.23076923076923 5.71428571428571  Z M 8.30769230769231 12.2857142857143  L 8.30769230769231 14.8571428571429  L 11.3846153846154 14.8571428571429  L 11.3846153846154 12.2857142857143  L 8.30769230769231 12.2857142857143  Z M 4.61538461538462 5.71428571428571  L 4.61538461538462 8.28571428571428  L 7.69230769230769 8.28571428571428  L 7.69230769230769 5.71428571428571  L 4.61538461538462 5.71428571428571  Z M 12 12.2857142857143  L 12 14.8571428571429  L 14.7692307692308 14.8571428571429  L 14.7692307692308 12.2857142857143  L 12 12.2857142857143  Z M 8.30769230769231 8.85714285714286  L 8.30769230769231 11.7142857142857  L 11.3846153846154 11.7142857142857  L 11.3846153846154 8.85714285714286  L 8.30769230769231 8.85714285714286  Z M 4.83173076923077 4.20089285714286  C 4.89262820512821 4.14434523809524  4.92307692307692 4.07738095238095  4.92307692307692 4  L 4.92307692307692 1.42857142857143  C 4.92307692307692 1.35119047619048  4.89262820512821 1.28422619047619  4.83173076923077 1.22767857142857  C 4.77083333333333 1.17113095238095  4.69871794871795 1.14285714285714  4.61538461538462 1.14285714285714  L 4 1.14285714285714  C 3.91666666666667 1.14285714285714  3.84455128205128 1.17113095238095  3.78365384615385 1.22767857142857  C 3.72275641025641 1.28422619047619  3.69230769230769 1.35119047619048  3.69230769230769 1.42857142857143  L 3.69230769230769 4  C 3.69230769230769 4.07738095238095  3.72275641025641 4.14434523809524  3.78365384615385 4.20089285714286  C 3.84455128205128 4.25744047619048  3.91666666666667 4.28571428571429  4 4.28571428571429  L 4.61538461538462 4.28571428571429  C 4.69871794871795 4.28571428571429  4.77083333333333 4.25744047619048  4.83173076923077 4.20089285714286  Z M 12 8.85714285714286  L 12 11.7142857142857  L 14.7692307692308 11.7142857142857  L 14.7692307692308 8.85714285714286  L 12 8.85714285714286  Z M 8.30769230769231 5.71428571428571  L 8.30769230769231 8.28571428571428  L 11.3846153846154 8.28571428571428  L 11.3846153846154 5.71428571428571  L 8.30769230769231 5.71428571428571  Z M 12 5.71428571428571  L 12 8.28571428571428  L 14.7692307692308 8.28571428571428  L 14.7692307692308 5.71428571428571  L 12 5.71428571428571  Z M 12.2163461538462 4.20089285714286  C 12.2772435897436 4.14434523809524  12.3076923076923 4.07738095238095  12.3076923076923 4  L 12.3076923076923 1.42857142857143  C 12.3076923076923 1.35119047619048  12.2772435897436 1.28422619047619  12.2163461538462 1.22767857142857  C 12.1554487179487 1.17113095238095  12.0833333333333 1.14285714285714  12 1.14285714285714  L 11.3846153846154 1.14285714285714  C 11.3012820512821 1.14285714285714  11.2291666666667 1.17113095238095  11.1682692307692 1.22767857142857  C 11.1073717948718 1.28422619047619  11.0769230769231 1.35119047619048  11.0769230769231 1.42857142857143  L 11.0769230769231 4  C 11.0769230769231 4.07738095238095  11.1073717948718 4.14434523809524  11.1682692307692 4.20089285714286  C 11.2291666666667 4.25744047619048  11.3012820512821 4.28571428571429  11.3846153846154 4.28571428571429  L 12 4.28571428571429  C 12.0833333333333 4.28571428571429  12.1554487179487 4.25744047619048  12.2163461538462 4.20089285714286  Z M 15.6346153846154 2.625  C 15.8782051282051 2.85119047619048  16 3.11904761904762  16 3.42857142857143  L 16 14.8571428571429  C 16 15.1666666666667  15.8782051282051 15.4345238095238  15.6346153846154 15.6607142857143  C 15.3910256410256 15.8869047619048  15.1025641025641 16  14.7692307692308 16  L 1.23076923076923 16  C 0.897435897435898 16  0.608974358974359 15.8869047619048  0.365384615384615 15.6607142857143  C 0.121794871794872 15.4345238095238  0 15.1666666666667  0 14.8571428571429  L 0 3.42857142857143  C 0 3.11904761904762  0.121794871794872 2.85119047619048  0.365384615384615 2.625  C 0.608974358974359 2.39880952380952  0.897435897435898 2.28571428571429  1.23076923076923 2.28571428571429  L 2.46153846153846 2.28571428571429  L 2.46153846153846 1.42857142857143  C 2.46153846153846 1.03571428571429  2.61217948717949 0.699404761904761  2.91346153846154 0.419642857142858  C 3.21474358974359 0.139880952380953  3.57692307692308 0  4 0  L 4.61538461538462 0  C 5.03846153846154 0  5.40064102564103 0.139880952380953  5.70192307692308 0.419642857142858  C 6.00320512820513 0.699404761904761  6.15384615384615 1.03571428571429  6.15384615384615 1.42857142857143  L 6.15384615384615 2.28571428571429  L 9.84615384615385 2.28571428571429  L 9.84615384615385 1.42857142857143  C 9.84615384615385 1.03571428571429  9.99679487179487 0.699404761904761  10.2980769230769 0.419642857142858  C 10.599358974359 0.139880952380953  10.9615384615385 0  11.3846153846154 0  L 12 0  C 12.4230769230769 0  12.7852564102564 0.139880952380953  13.0865384615385 0.419642857142858  C 13.3878205128205 0.699404761904761  13.5384615384615 1.03571428571429  13.5384615384615 1.42857142857143  L 13.5384615384615 2.28571428571429  L 14.7692307692308 2.28571428571429  C 15.1025641025641 2.28571428571429  15.3910256410256 2.39880952380952  15.6346153846154 2.625  Z " fill-rule="nonzero" fill="#c4ccdc" stroke="none" transform="matrix(1 0 0 1 995 64 )" />
  </g>
</svg>