<?xml version="1.0" encoding="utf-8"?>
<svg version="1.1" xmlns:xlink="http://www.w3.org/1999/xlink" width="26px" height="24px" xmlns="http://www.w3.org/2000/svg">
  <g transform="matrix(1 0 0 1 -4 -16 )">
    <path d="M 25.1584821428571 10.0070921985816  C 25.719494047619 10.5602836879433  26 11.2245862884161  26 12  C 26 12.548463356974  25.8573288690476 13.0472813238771  25.5719866071429 13.4964539007092  C 25.2866443452381 13.9456264775414  24.9021577380952 14.2884160756501  24.4185267857143 14.5248226950355  C 24.5345982142857 14.9598108747045  24.5926339285714 15.4137115839243  24.5926339285714 15.886524822695  C 24.5926339285714 17.3522458628842  24.0775669642857 18.709219858156  23.0474330357143 19.9574468085106  C 22.0172991071429 21.2056737588652  20.6123511904762 22.1914893617021  18.8325892857143 22.9148936170213  C 17.0528273809524 23.6382978723404  15.1183035714286 24  13.0290178571429 24  C 10.9397321428571 24  9.00762648809524 23.6382978723404  7.23270089285714 22.9148936170213  C 5.45777529761905 22.1914893617021  4.05524553571429 21.2056737588652  3.02511160714286 19.9574468085106  C 1.99497767857143 18.709219858156  1.47991071428571 17.3522458628842  1.47991071428571 15.886524822695  C 1.47991071428571 15.4420803782506  1.53311011904762 14.9976359338061  1.63950892857143 14.5531914893617  C 1.14620535714286 14.3167848699764  0.749627976190476 13.9692671394799  0.449776785714286 13.5106382978723  C 0.149925595238095 13.0520094562648  0 12.548463356974  0 12  C 0 11.2245862884161  0.280505952380952 10.5602836879433  0.841517857142857 10.0070921985816  C 1.40252976190476 9.45390070921986  2.08444940476191 9.17730496453901  2.88727678571429 9.17730496453901  C 3.70944940476191 9.17730496453901  4.41071428571429 9.47517730496454  4.99107142857143 10.0709219858156  C 7.09970238095238 8.63356973995272  9.59040178571429 7.86761229314421  12.4631696428571 7.77304964539007  L 14.1462053571429 0.382978723404255  C 14.1752232142857 0.260047281323875  14.2477678571429 0.160756501182032  14.3638392857143 0.0851063829787222  C 14.4799107142857 0.00945626477541239  14.6056547619048 -0.0141843971631186  14.7410714285714 0.0141843971631213  L 20.0948660714286 1.16312056737589  C 20.2689732142857 0.813238770685578  20.5301339285714 0.531914893617022  20.8783482142857 0.319148936170214  C 21.2265625 0.106382978723405  21.608630952381 0  22.0245535714286 0  C 22.624255952381 0  23.1369047619048 0.205673758865249  23.5625 0.617021276595744  C 23.9880952380952 1.02836879432624  24.2008928571429 1.52718676122931  24.2008928571429 2.11347517730497  C 24.2008928571429 2.69976359338061  23.9880952380952 3.20094562647754  23.5625 3.61702127659574  C 23.1369047619048 4.03309692671395  22.624255952381 4.24113475177305  22.0245535714286 4.24113475177305  C 21.4248511904762 4.24113475177305  20.9146205357143 4.0354609929078  20.4938616071429 3.62411347517731  C 20.0731026785714 3.21276595744681  19.8627232142857 2.71394799054374  19.8627232142857 2.12765957446808  L 15.0167410714286 1.07801418439716  L 13.5078125 7.77304964539007  C 16.4095982142857 7.85815602836879  18.9196428571429 8.61465721040189  21.0379464285714 10.0425531914894  C 21.5989583333333 9.46572104018912  22.2905505952381 9.17730496453901  23.1127232142857 9.17730496453901  C 23.9155505952381 9.17730496453901  24.5974702380952 9.45390070921986  25.1584821428571 10.0070921985816  Z M 6.703125 13.3333333333333  C 6.27752976190476 13.7494089834515  6.06473214285714 14.2458628841608  6.06473214285714 14.822695035461  C 6.06473214285714 15.4089834515366  6.27511160714286 15.9101654846336  6.69587053571429 16.3262411347518  C 7.11662946428571 16.74231678487  7.62686011904762 16.9503546099291  8.2265625 16.9503546099291  C 8.82626488095238 16.9503546099291  9.33891369047619 16.74231678487  9.76450892857143 16.3262411347518  C 10.1901041666667 15.9101654846336  10.4029017857143 15.4089834515366  10.4029017857143 14.822695035461  C 10.4029017857143 14.2364066193853  10.1901041666667 13.7375886524823  9.76450892857143 13.3262411347518  C 9.33891369047619 12.9148936170213  8.82626488095238 12.709219858156  8.2265625 12.709219858156  C 7.63653273809524 12.709219858156  7.12872023809524 12.9172576832151  6.703125 13.3333333333333  Z M 16.09765625 20.822695035461  C 16.8279389880952 20.5862884160757  17.4010416666667 20.2647754137116  17.8169642857143 19.8581560283688  C 17.9233630952381 19.7541371158392  17.9765625 19.6312056737589  17.9765625 19.4893617021277  C 17.9765625 19.3475177304965  17.9233630952381 19.2245862884161  17.8169642857143 19.1205673758865  C 17.7202380952381 19.0260047281324  17.5993303571429 18.9787234042553  17.4542410714286 18.9787234042553  C 17.3091517857143 18.9787234042553  17.1834077380952 19.0260047281324  17.0770089285714 19.1205673758865  C 16.680431547619 19.5177304964539  16.0952380952381 19.8108747044917  15.3214285714286 20  C 14.547619047619 20.1891252955083  13.7738095238095 20.2836879432624  13 20.2836879432624  C 12.2261904761905 20.2836879432624  11.452380952381 20.1891252955083  10.6785714285714 20  C 9.90476190476191 19.8108747044917  9.31956845238095 19.5177304964539  8.92299107142857 19.1205673758865  C 8.81659226190476 19.0260047281324  8.69084821428571 18.9787234042553  8.54575892857143 18.9787234042553  C 8.40066964285714 18.9787234042553  8.27976190476191 19.0260047281324  8.18303571428571 19.1205673758865  C 8.07663690476191 19.2151300236407  8.0234375 19.3356973995272  8.0234375 19.4822695035461  C 8.0234375 19.628841607565  8.07663690476191 19.7541371158392  8.18303571428571 19.8581560283688  C 8.59895833333333 20.2647754137116  9.17206101190476 20.5862884160757  9.90234375 20.822695035461  C 10.6326264880952 21.0591016548463  11.2250744047619 21.1985815602837  11.6796875 21.2411347517731  C 12.1343005952381 21.2836879432624  12.5744047619048 21.3049645390071  13 21.3049645390071  C 13.4255952380952 21.3049645390071  13.8656994047619 21.2836879432624  14.3203125 21.2411347517731  C 14.7749255952381 21.1985815602837  15.3673735119048 21.0591016548463  16.09765625 20.822695035461  Z M 16.2354910714286 16.3262411347518  C 16.6610863095238 16.74231678487  17.1737351190476 16.9503546099291  17.7734375 16.9503546099291  C 18.3731398809524 16.9503546099291  18.8833705357143 16.74231678487  19.3041294642857 16.3262411347518  C 19.7248883928571 15.9101654846336  19.9352678571429 15.4089834515366  19.9352678571429 14.822695035461  C 19.9352678571429 14.2458628841608  19.7224702380952 13.7494089834515  19.296875 13.3333333333333  C 18.8712797619048 12.9172576832151  18.3634672619048 12.709219858156  17.7734375 12.709219858156  C 17.1737351190476 12.709219858156  16.6610863095238 12.9148936170213  16.2354910714286 13.3262411347518  C 15.8098958333333 13.7375886524823  15.5970982142857 14.2364066193853  15.5970982142857 14.822695035461  C 15.5970982142857 15.4089834515366  15.8098958333333 15.9101654846336  16.2354910714286 16.3262411347518  Z " fill-rule="nonzero" fill="#ffffff" stroke="none" transform="matrix(1 0 0 1 4 16 )" />
  </g>
</svg>