<?xml version="1.0" encoding="utf-8"?>
<svg version="1.1" xmlns:xlink="http://www.w3.org/1999/xlink" width="12px" height="12px" viewBox="178 486.5  12 12" xmlns="http://www.w3.org/2000/svg">
  <path d="M 184 486.5  C 187.36 486.5  190 489.14  190 492.5  C 190 495.86  187.36 498.5  184 498.5  C 180.64 498.5  178 495.86  178 492.5  C 178 489.14  180.64 486.5  184 486.5  Z " fill-rule="nonzero" fill="#ffffff" stroke="none" />
  <path d="M 184 487  C 187.08 487  189.5 489.42  189.5 492.5  C 189.5 495.58  187.08 498  184 498  C 180.92 498  178.5 495.58  178.5 492.5  C 178.5 489.42  180.92 487  184 487  Z " stroke-width="1" stroke="#797979" fill="none" />
  <path d="M 184 495.5  C 182.32 495.5  181 494.18  181 492.5  C 181 490.82  182.32 489.5  184 489.5  C 185.68 489.5  187 490.82  187 492.5  C 187 494.18  185.68 495.5  184 495.5  " fill-rule="nonzero" fill="#797979" stroke="none" />
</svg>