<?xml version="1.0" encoding="utf-8"?>
<svg version="1.1" xmlns:xlink="http://www.w3.org/1999/xlink" width="12px" height="12px" viewBox="178 468.5  12 12" xmlns="http://www.w3.org/2000/svg">
  <path d="M 184 468.5  C 187.36 468.5  190 471.14  190 474.5  C 190 477.86  187.36 480.5  184 480.5  C 180.64 480.5  178 477.86  178 474.5  C 178 471.14  180.64 468.5  184 468.5  Z " fill-rule="nonzero" fill="#ffffff" stroke="none" />
  <path d="M 184 469  C 187.08 469  189.5 471.42  189.5 474.5  C 189.5 477.58  187.08 480  184 480  C 180.92 480  178.5 477.58  178.5 474.5  C 178.5 471.42  180.92 469  184 469  Z " stroke-width="1" stroke="#797979" fill="none" />
  <path d="M 184 477.5  C 182.32 477.5  181 476.18  181 474.5  C 181 472.82  182.32 471.5  184 471.5  C 185.68 471.5  187 472.82  187 474.5  C 187 476.18  185.68 477.5  184 477.5  " fill-rule="nonzero" fill="#797979" stroke="none" />
</svg>