<?xml version="1.0" encoding="utf-8"?>
<svg version="1.1" xmlns:xlink="http://www.w3.org/1999/xlink" width="39px" height="39px" xmlns="http://www.w3.org/2000/svg">
  <g transform="matrix(1 0 0 1 -940 -31 )">
    <path d="M 959.5 31  C 970.42 31  979 39.58  979 50.5  C 979 61.42  970.42 70  959.5 70  C 948.58 70  940 61.42  940 50.5  C 940 39.58  948.58 31  959.5 31  Z " fill-rule="nonzero" fill="#ffffff" stroke="none" />
    <path d="M 959.5 31.5  C 970.14 31.5  978.5 39.86  978.5 50.5  C 978.5 61.14  970.14 69.5  959.5 69.5  C 948.86 69.5  940.5 61.14  940.5 50.5  C 940.5 39.86  948.86 31.5  959.5 31.5  Z " stroke-width="1" stroke="#d7d7d7" fill="none" />
  </g>
</svg>