<?xml version="1.0" encoding="utf-8"?>
<svg version="1.1" xmlns:xlink="http://www.w3.org/1999/xlink" width="24px" height="22px" xmlns="http://www.w3.org/2000/svg">
  <g transform="matrix(1 0 0 1 -948 -40 )">
    <path d="M 5.53846153846154 16.5  L 5.53846153846154 20  L 18.4615384615385 20  L 18.4615384615385 16.5  L 5.53846153846154 16.5  Z M 5.53846153846154 1.83333333333333  L 5.53846153846154 11  L 18.4615384615385 11  L 18.4615384615385 5.5  L 16.1538461538462 5.5  C 15.7692307692308 5.5  15.4423076923077 5.36631944444444  15.1730769230769 5.09895833333333  C 14.9038461538462 4.83159722222222  14.7692307692308 4.50694444444444  14.7692307692308 4.125  L 14.7692307692308 1.83333333333333  L 5.53846153846154 1.83333333333333  Z M 21.8798076923077 12.5611979166667  C 22.0625 12.3797743055556  22.1538461538462 12.1649305555556  22.1538461538462 11.9166666666667  C 22.1538461538462 11.6684027777778  22.0625 11.4535590277778  21.8798076923077 11.2721354166667  C 21.6971153846154 11.0907118055556  21.4807692307692 11  21.2307692307692 11  C 20.9807692307692 11  20.7644230769231 11.0907118055556  20.5817307692308 11.2721354166667  C 20.3990384615385 11.4535590277778  20.3076923076923 11.6684027777778  20.3076923076923 11.9166666666667  C 20.3076923076923 12.1649305555556  20.3990384615385 12.3797743055556  20.5817307692308 12.5611979166667  C 20.7644230769231 12.7426215277778  20.9807692307692 12.8333333333333  21.2307692307692 12.8333333333333  C 21.4807692307692 12.8333333333333  21.6971153846154 12.7426215277778  21.8798076923077 12.5611979166667  Z M 23.1850961538462 9.97591145833333  C 23.7283653846154 10.5154079861111  24 11.1623263888889  24 11.9166666666667  L 24 17.875  C 24 17.9991319444444  23.9543269230769 18.1065538194444  23.8629807692308 18.197265625  C 23.7716346153846 18.2879774305556  23.6634615384615 18.3333333333333  23.5384615384615 18.3333333333333  L 20.3076923076923 18.3333333333333  L 20.3076923076923 20.625  C 20.3076923076923 21.0069444444444  20.1730769230769 21.3315972222222  19.9038461538462 21.5989583333333  C 19.6346153846154 21.8663194444444  19.3076923076923 22  18.9230769230769 22  L 5.07692307692308 22  C 4.69230769230769 22  4.36538461538462 21.8663194444444  4.09615384615385 21.5989583333333  C 3.82692307692308 21.3315972222222  3.69230769230769 21.0069444444444  3.69230769230769 20.625  L 3.69230769230769 18.3333333333333  L 0.461538461538462 18.3333333333333  C 0.336538461538462 18.3333333333333  0.228365384615385 18.2879774305556  0.137019230769231 18.197265625  C 0.0456730769230769 18.1065538194444  0 17.9991319444444  0 17.875  L 0 11.9166666666667  C 0 11.1623263888889  0.271634615384615 10.5154079861111  0.814903846153846 9.97591145833333  C 1.35817307692308 9.43641493055556  2.00961538461539 9.16666666666667  2.76923076923077 9.16666666666667  L 3.69230769230769 9.16666666666667  L 3.69230769230769 1.375  C 3.69230769230769 0.993055555555554  3.82692307692308 0.668402777777775  4.09615384615385 0.401041666666666  C 4.36538461538462 0.133680555555554  4.69230769230769 0  5.07692307692308 0  L 14.7692307692308 0  C 15.1538461538462 0  15.5769230769231 0.0954861111111089  16.0384615384615 0.286458333333334  C 16.5 0.477430555555554  16.8653846153846 0.70659722222222  17.1346153846154 0.973958333333334  L 19.3269230769231 3.15104166666667  C 19.5961538461538 3.41840277777778  19.8269230769231 3.78125  20.0192307692308 4.23958333333333  C 20.2115384615385 4.69791666666667  20.3076923076923 5.11805555555555  20.3076923076923 5.5  L 20.3076923076923 9.16666666666667  L 21.2307692307692 9.16666666666667  C 21.9903846153846 9.16666666666667  22.6418269230769 9.43641493055556  23.1850961538462 9.97591145833333  Z " fill-rule="nonzero" fill="#7f7f7f" stroke="none" transform="matrix(1 0 0 1 948 40 )" />
  </g>
</svg>