<?xml version="1.0" encoding="utf-8"?>
<svg version="1.1" xmlns:xlink="http://www.w3.org/1999/xlink" width="23px" height="19px" xmlns="http://www.w3.org/2000/svg">
  <g transform="matrix(1 0 0 1 -1318 -870 )">
    <path d="M 22.1340906845536 0.195644273159218  C 22.2703924097018 0.239127702008119  22.3804512630815 0.321310732716  22.4642672446932 0.442193365282861  C 22.6341278580811 0.701786599947695  22.652748545081 0.981598683839593  22.5201293056927 1.28162961695853  L 14.6195618046454 18.4799231812198  C 14.5189830500217 18.6960323962935  14.3583442638659 18.8373508817121  14.1376454461785 18.9038786374755  C 14.0238884942062 18.936055429636  13.9090817850318 18.9336633684555  13.7932253186559 18.8967024539339  C 13.7182593698246 18.872786568067  13.6422113798509 18.8271292631468  13.5650813487352 18.7597305391733  L 9.57059824461962 15.1104165592278  L 6.0819729477844 17.784595152741  C 5.906557380091 17.9254787447968  5.71321575925444 17.9622208834668  5.50194808527472 17.894821568751  C 5.41335196392864 17.8665573399993  5.34297245118924 17.8269876560437  5.29080954705697 17.7761125168843  C 5.17737543448897 17.6800149661675  5.10039068110502 17.5548927878992  5.05985528690557 17.4007459820795  C 5.0193198927059 17.2465991762598  5.02198437606725 17.0912567829065  5.06784873698897 16.9347188020197  L 6.26834838411998 12.8373371523075  L 18.7434770399397 3.22203420978119  L 4.63364618723293 10.5955727258434  L 1.15295956492155 7.40543967842029  C 0.932906426042839 7.21541874842907  0.859668197162241 6.95669559586082  0.933244878280192 6.62927022071554  C 1.01134342760927 6.31184591605702  1.18803474008738 6.11573913732809  1.46331881571497 6.04094988452874  L 21.776008100576 0.196947181020477  C 21.8988733568519 0.15911766125808  22.0182342181779 0.15868335863766  22.1340906845536 0.195644273159218  Z " fill-rule="nonzero" fill="#ffffff" stroke="none" transform="matrix(1 0 0 1 1318 870 )" />
  </g>
</svg>