<?xml version="1.0" encoding="utf-8"?>
<svg version="1.1" xmlns:xlink="http://www.w3.org/1999/xlink" width="13px" height="15px" xmlns="http://www.w3.org/2000/svg">
  <g transform="matrix(1 0 0 1 -159 -594 )">
    <path d="M 6.51692708333333 8.57142857142857  C 7.78081597222222 8.57142857142857  8.41276041666667 9.04017857142857  8.41276041666667 9.97767857142857  C 8.41276041666667 10.4575892857143  8.36480034722222 11.0072544642857  8.26888020833333 11.6266741071429  C 8.09396701388889 12.8264508928571  7.93880208333333 13.6997767857143  7.80338541666667 14.2466517857143  C 7.67925347222222 14.7488839285714  7.25043402777778 15  6.51692708333333 15  C 5.78342013888889 15  5.35460069444444 14.7488839285714  5.23046875 14.2466517857143  C 5.09505208333333 13.6997767857143  4.93988715277778 12.8264508928571  4.76497395833333 11.6266741071429  C 4.66905381944444 11.0128348214286  4.62109375 10.4631696428571  4.62109375 9.97767857142857  C 4.62109375 9.04017857142857  5.25303819444444 8.57142857142857  6.51692708333333 8.57142857142857  Z M 12.4456380208333 3.84626116071429  C 12.8152126736111 4.66378348214286  13 5.52455357142857  13 6.42857142857143  C 13 7.76785714285714  12.6219618055556 8.97879464285714  11.8658854166667 10.0613839285714  C 11.1098090277778 11.1439732142857  10.1223958333333 11.9252232142857  8.90364583333333 12.4051339285714  C 8.85850694444444 12.421875  8.81618923611111 12.4135044642857  8.77669270833333 12.3800223214286  C 8.73719618055556 12.3465401785714  8.72026909722222 12.3046875  8.72591145833333 12.2544642857143  C 8.76540798611111 11.9866071428571  8.79361979166667 11.8024553571429  8.810546875 11.7020089285714  C 8.83311631944444 11.5234375  8.85004340277778 11.3922991071429  8.861328125 11.30859375  C 8.86697048611111 11.2583705357143  8.89236111111111 11.2248883928571  8.9375 11.2081473214286  C 9.83463541666667 10.7561383928571  10.5554470486111 10.1032366071429  11.0999348958333 9.24944196428572  C 11.6444227430556 8.39564732142857  11.9166666666667 7.45535714285714  11.9166666666667 6.42857142857143  C 11.9166666666667 5.42410714285714  11.6599392361111 4.501953125  11.146484375 3.662109375  C 10.6330295138889 2.822265625  9.93619791666667 2.16796875  9.05598958333333 1.69921875  C 8.17578125 1.23046875  7.22504340277778 1.02399553571428  6.20377604166667 1.07979910714286  C 5.50412326388889 1.11886160714286  4.83550347222222 1.2890625  4.19791666666667 1.59040178571429  C 3.56032986111111 1.89174107142857  3.01443142361111 2.28376116071428  2.56022135416667 2.76646205357143  C 2.10601128472222 3.24916294642857  1.74490017361111 3.81277901785714  1.47688802083333 4.45731026785714  C 1.20887586805556 5.10184151785714  1.07769097222222 5.77287946428571  1.08333333333333 6.47042410714286  C 1.08897569444444 7.49720982142857  1.36827256944444 8.43610491071429  1.92122395833333 9.287109375  C 2.47417534722222 10.1381138392857  3.19921875 10.7840401785714  4.09635416666667 11.2248883928571  C 4.13585069444444 11.2416294642857  4.16124131944444 11.2751116071429  4.17252604166667 11.3253348214286  C 4.189453125 11.4425223214286  4.20638020833333 11.5680803571429  4.22330729166667 11.7020089285714  C 4.22894965277778 11.7522321428571  4.24305555555556 11.8429129464286  4.265625 11.9740513392857  C 4.28819444444444 12.1051897321429  4.30512152777778 12.2042410714286  4.31640625 12.2712053571429  C 4.32204861111111 12.3214285714286  4.3037109375 12.36328125  4.26139322916667 12.3967633928571  C 4.21907552083333 12.4302455357143  4.17534722222222 12.4358258928571  4.13020833333333 12.4135044642857  C 3.29513888888889 12.08984375  2.55881076388889 11.6169084821429  1.92122395833333 10.9946986607143  C 1.28363715277778 10.3724888392857  0.794162326388889 9.63588169642857  0.452799479166667 8.78487723214286  C 0.111436631944444 7.93387276785714  -0.0366753472222222 7.04241071428571  0.00846354166666667 6.11049107142857  C 0.0479600694444444 5.3125  0.234157986111111 4.54938616071429  0.567057291666667 3.82114955357143  C 0.899956597222222 3.09291294642857  1.33582899305556 2.45954241071428  1.87467447916667 1.92103794642857  C 2.41351996527778 1.38253348214286  3.04828559027778 0.943080357142856  3.77897135416667 0.602678571428571  C 4.50965711805556 0.262276785714284  5.27842881944444 0.0669642857142855  6.08528645833333 0.016741071428571  C 7.01063368055556 -0.0390625000000011  7.90071614583333 0.0906808035714279  8.75553385416667 0.405970982142856  C 9.6103515625 0.721261160714285  10.3466796875 1.16908482142857  10.9645182291667 1.74944196428571  C 11.5823567708333 2.32979910714286  12.0760633680556 3.02873883928571  12.4456380208333 3.84626116071429  Z M 7.8583984375 4.833984375  C 8.22797309027778 5.19949776785714  8.41276041666667 5.64174107142857  8.41276041666667 6.16071428571429  C 8.41276041666667 6.6796875  8.22797309027778 7.12193080357143  7.8583984375 7.48744419642857  C 7.48882378472222 7.85295758928571  7.04166666666667 8.03571428571428  6.51692708333333 8.03571428571428  C 5.9921875 8.03571428571428  5.54503038194444 7.85295758928571  5.17545572916667 7.48744419642857  C 4.80588107638889 7.12193080357143  4.62109375 6.6796875  4.62109375 6.16071428571429  C 4.62109375 5.64174107142857  4.80588107638889 5.19949776785714  5.17545572916667 4.833984375  C 5.54503038194444 4.46847098214286  5.9921875 4.28571428571429  6.51692708333333 4.28571428571429  C 7.04166666666667 4.28571428571429  7.48882378472222 4.46847098214286  7.8583984375 4.833984375  Z M 10.2366536458333 4.22293526785714  C 10.6457248263889 4.89536830357143  10.8502604166667 5.63058035714286  10.8502604166667 6.42857142857143  C 10.8502604166667 7.109375  10.6993272569444 7.74693080357143  10.3974609375 8.34123883928572  C 10.0955946180556 8.935546875  9.68229166666667 9.43080357142857  9.15755208333333 9.82700892857143  C 9.11241319444444 9.86049107142857  9.06727430555556 9.86607142857143  9.02213541666667 9.84375  C 8.97699652777778 9.82142857142857  8.94878472222222 9.78236607142857  8.9375 9.7265625  C 8.90364583333333 9.43638392857143  8.82183159722222 9.1796875  8.69205729166667 8.95647321428572  C 8.65256076388889 8.90066964285714  8.66102430555556 8.84486607142857  8.71744791666667 8.7890625  C 9.04470486111111 8.48772321428572  9.30143229166667 8.13337053571428  9.48763020833333 7.72600446428571  C 9.673828125 7.31863839285714  9.76692708333333 6.88616071428571  9.76692708333333 6.42857142857143  C 9.76692708333333 5.80915178571429  9.60188802083333 5.23995535714286  9.27180989583333 4.72098214285714  C 8.94173177083333 4.20200892857143  8.49739583333333 3.80719866071428  7.93880208333333 3.53655133928571  C 7.38020833333333 3.26590401785714  6.78211805555556 3.1640625  6.14453125 3.23102678571429  C 5.39409722222222 3.31473214285714  4.748046875 3.63002232142857  4.20638020833333 4.17689732142857  C 3.66471354166667 4.72377232142857  3.35720486111111 5.36830357142857  3.28385416666667 6.11049107142857  C 3.22743055555556 6.62388392857143  3.29372829861111 7.11495535714286  3.48274739583333 7.58370535714286  C 3.67176649305556 8.05245535714286  3.94965277777778 8.45424107142857  4.31640625 8.7890625  C 4.37282986111111 8.84486607142857  4.38129340277778 8.90066964285714  4.341796875 8.95647321428572  C 4.20638020833333 9.18526785714286  4.12456597222222 9.44475446428571  4.09635416666667 9.73493303571428  C 4.08506944444444 9.78515625  4.05685763888889 9.82142857142857  4.01171875 9.84375  C 3.96657986111111 9.86607142857143  3.92144097222222 9.86049107142857  3.87630208333333 9.82700892857143  C 3.34027777777778 9.4140625  2.92133246527778 8.90345982142857  2.61946614583333 8.29520089285714  C 2.31759982638889 7.68694196428571  2.17230902777778 7.03404017857143  2.18359375 6.33649553571429  C 2.20052083333333 5.60546875  2.39518229166667 4.92466517857143  2.767578125 4.29408482142857  C 3.13997395833333 3.66350446428571  3.63932291666667 3.15708705357143  4.265625 2.77483258928571  C 4.89192708333333 2.392578125  5.57183159722222 2.18470982142857  6.30533854166667 2.15122767857143  C 7.11783854166667 2.11216517857143  7.87391493055556 2.27957589285714  8.57356770833333 2.65345982142857  C 9.27322048611111 3.02734375  9.82758246527778 3.55050223214286  10.2366536458333 4.22293526785714  Z " fill-rule="nonzero" fill="#f59a23" stroke="none" transform="matrix(1 0 0 1 159 594 )" />
  </g>
</svg>